<?xml version="1.0" encoding="utf-8"?>
<svg version="1.1" xmlns:xlink="http://www.w3.org/1999/xlink" width="43px" height="43px" xmlns="http://www.w3.org/2000/svg">
  <defs>
    <pattern id="BGPattern" patternUnits="userSpaceOnUse" alignment="0 0" imageRepeat="None" />
    <mask fill="white" id="Clip32">
      <path d="M 13.149553571428573 1.7036830357142851  C 15.805059523809526 0.567894345238095  18.588541666666668 0  21.5 0  C 24.411458333333336 0  27.19494047619048 0.567894345238095  29.85044642857143 1.7036830357142851  C 32.50595238095239 2.839471726190475  34.793526785714285 4.3671875  36.713169642857146 6.286830357142855  C 38.63281250000001 8.206473214285715  40.16052827380953 10.494047619047615  41.296316964285715 13.14955357142857  C 42.43210565476191 15.80505952380952  43 18.588541666666664  43 21.5  C 43 24.39546130952381  42.436104910714285 27.17094494047619  41.308314732142854 29.82645089285714  C 40.18052455357143 32.4819568452381  38.656808035714285 34.76953125  36.73716517857143 36.68917410714286  C 34.81752232142857 38.608816964285715  32.52994791666667 40.14053199404761  29.874441964285715 41.28431919642857  C 27.218936011904766 42.428106398809526  24.427455357142854 43  21.5 43  C 18.572544642857142 43  15.78106398809524 42.432105654761905  13.125558035714285 41.296316964285715  C 10.470052083333334 40.160528273809526  8.18647693452381 38.62881324404761  6.2748325892857135 36.701171875  C 4.363188244047619 34.77353050595238  2.8394717261904763 32.485956101190474  1.7036830357142856 29.838448660714285  C 0.5678943452380951 27.19094122023809  0 24.41145833333333  0 21.5  C 0 18.588541666666664  0.5678943452380951 15.80505952380952  1.7036830357142856 13.14955357142857  C 2.8394717261904763 10.494047619047615  4.3671875 8.206473214285715  6.286830357142858 6.286830357142855  C 8.206473214285714 4.3671875  10.49404761904762 2.839471726190475  13.149553571428573 1.7036830357142851  Z M 29.01060267857143 24.57142857142857  C 32.849888392857146 24.57142857142857  35.297433035714285 27.186941964285715  36.353236607142854 32.41796875  C 38.73679315476191 29.13857886904762  39.92857142857143 25.49925595238095  39.92857142857143 21.5  C 39.92857142857143 19.004464285714285  39.440662202380956 16.620907738095234  38.46484375 14.349330357142856  C 37.48902529761905 12.077752976190474  36.1772693452381 10.118117559523805  34.529575892857146 8.470424107142856  C 32.8818824404762 6.822730654761905  30.922247023809526 5.51097470238095  28.650669642857146 4.53515625  C 26.379092261904766 3.5593377976190452  23.995535714285715 3.0714285714285703  21.5 3.0714285714285703  C 19.004464285714285 3.0714285714285703  16.62090773809524 3.5593377976190452  14.349330357142858 4.53515625  C 12.077752976190478 5.51097470238095  10.118117559523812 6.822730654761905  8.470424107142858 8.470424107142856  C 6.822730654761906 10.118117559523805  5.5109747023809526 12.077752976190474  4.53515625 14.349330357142856  C 3.559337797619048 16.620907738095234  3.071428571428571 19.004464285714285  3.071428571428571 21.5  C 3.071428571428571 25.49925595238095  4.263206845238096 29.13857886904762  6.646763392857142 32.41796875  C 7.7025669642857135 27.186941964285715  10.150111607142858 24.57142857142857  13.989397321428573 24.57142857142857  C 16.085007440476193 26.61904761904762  18.588541666666668 27.64285714285714  21.5 27.64285714285714  C 24.411458333333336 27.64285714285714  26.91499255952381 26.61904761904762  29.01060267857143 24.57142857142857  Z M 28.01478794642857 23.407645089285715  C 29.814453125 21.607979910714285  30.714285714285715 19.43638392857143  30.714285714285715 16.892857142857146  C 30.714285714285715 14.349330357142856  29.814453125 12.177734375  28.01478794642857 10.37806919642857  C 26.215122767857146 8.578404017857144  24.043526785714285 7.67857142857143  21.5 7.67857142857143  C 18.956473214285715 7.67857142857143  16.784877232142858 8.578404017857144  14.985212053571427 10.37806919642857  C 13.185546875 12.177734375  12.285714285714285 14.349330357142856  12.285714285714285 16.892857142857146  C 12.285714285714285 19.43638392857143  13.185546875 21.607979910714285  14.985212053571427 23.407645089285715  C 16.784877232142858 25.20731026785714  18.956473214285715 26.10714285714286  21.5 26.10714285714286  C 24.043526785714285 26.10714285714286  26.215122767857146 25.20731026785714  28.01478794642857 23.407645089285715  Z " fill-rule="evenodd" />
    </mask>
  </defs>
  <g transform="matrix(1 0 0 1 -27 -85 )">
    <path d="M 13.149553571428573 1.7036830357142851  C 15.805059523809526 0.567894345238095  18.588541666666668 0  21.5 0  C 24.411458333333336 0  27.19494047619048 0.567894345238095  29.85044642857143 1.7036830357142851  C 32.50595238095239 2.839471726190475  34.793526785714285 4.3671875  36.713169642857146 6.286830357142855  C 38.63281250000001 8.206473214285715  40.16052827380953 10.494047619047615  41.296316964285715 13.14955357142857  C 42.43210565476191 15.80505952380952  43 18.588541666666664  43 21.5  C 43 24.39546130952381  42.436104910714285 27.17094494047619  41.308314732142854 29.82645089285714  C 40.18052455357143 32.4819568452381  38.656808035714285 34.76953125  36.73716517857143 36.68917410714286  C 34.81752232142857 38.608816964285715  32.52994791666667 40.14053199404761  29.874441964285715 41.28431919642857  C 27.218936011904766 42.428106398809526  24.427455357142854 43  21.5 43  C 18.572544642857142 43  15.78106398809524 42.432105654761905  13.125558035714285 41.296316964285715  C 10.470052083333334 40.160528273809526  8.18647693452381 38.62881324404761  6.2748325892857135 36.701171875  C 4.363188244047619 34.77353050595238  2.8394717261904763 32.485956101190474  1.7036830357142856 29.838448660714285  C 0.5678943452380951 27.19094122023809  0 24.41145833333333  0 21.5  C 0 18.588541666666664  0.5678943452380951 15.80505952380952  1.7036830357142856 13.14955357142857  C 2.8394717261904763 10.494047619047615  4.3671875 8.206473214285715  6.286830357142858 6.286830357142855  C 8.206473214285714 4.3671875  10.49404761904762 2.839471726190475  13.149553571428573 1.7036830357142851  Z M 29.01060267857143 24.57142857142857  C 32.849888392857146 24.57142857142857  35.297433035714285 27.186941964285715  36.353236607142854 32.41796875  C 38.73679315476191 29.13857886904762  39.92857142857143 25.49925595238095  39.92857142857143 21.5  C 39.92857142857143 19.004464285714285  39.440662202380956 16.620907738095234  38.46484375 14.349330357142856  C 37.48902529761905 12.077752976190474  36.1772693452381 10.118117559523805  34.529575892857146 8.470424107142856  C 32.8818824404762 6.822730654761905  30.922247023809526 5.51097470238095  28.650669642857146 4.53515625  C 26.379092261904766 3.5593377976190452  23.995535714285715 3.0714285714285703  21.5 3.0714285714285703  C 19.004464285714285 3.0714285714285703  16.62090773809524 3.5593377976190452  14.349330357142858 4.53515625  C 12.077752976190478 5.51097470238095  10.118117559523812 6.822730654761905  8.470424107142858 8.470424107142856  C 6.822730654761906 10.118117559523805  5.5109747023809526 12.077752976190474  4.53515625 14.349330357142856  C 3.559337797619048 16.620907738095234  3.071428571428571 19.004464285714285  3.071428571428571 21.5  C 3.071428571428571 25.49925595238095  4.263206845238096 29.13857886904762  6.646763392857142 32.41796875  C 7.7025669642857135 27.186941964285715  10.150111607142858 24.57142857142857  13.989397321428573 24.57142857142857  C 16.085007440476193 26.61904761904762  18.588541666666668 27.64285714285714  21.5 27.64285714285714  C 24.411458333333336 27.64285714285714  26.91499255952381 26.61904761904762  29.01060267857143 24.57142857142857  Z M 28.01478794642857 23.407645089285715  C 29.814453125 21.607979910714285  30.714285714285715 19.43638392857143  30.714285714285715 16.892857142857146  C 30.714285714285715 14.349330357142856  29.814453125 12.177734375  28.01478794642857 10.37806919642857  C 26.215122767857146 8.578404017857144  24.043526785714285 7.67857142857143  21.5 7.67857142857143  C 18.956473214285715 7.67857142857143  16.784877232142858 8.578404017857144  14.985212053571427 10.37806919642857  C 13.185546875 12.177734375  12.285714285714285 14.349330357142856  12.285714285714285 16.892857142857146  C 12.285714285714285 19.43638392857143  13.185546875 21.607979910714285  14.985212053571427 23.407645089285715  C 16.784877232142858 25.20731026785714  18.956473214285715 26.10714285714286  21.5 26.10714285714286  C 24.043526785714285 26.10714285714286  26.215122767857146 25.20731026785714  28.01478794642857 23.407645089285715  Z " fill-rule="nonzero" fill="rgba(0, 77, 141, 1)" stroke="none" transform="matrix(1 0 0 1 27 85 )" class="fill" />
    <path d="M 13.149553571428573 1.7036830357142851  C 15.805059523809526 0.567894345238095  18.588541666666668 0  21.5 0  C 24.411458333333336 0  27.19494047619048 0.567894345238095  29.85044642857143 1.7036830357142851  C 32.50595238095239 2.839471726190475  34.793526785714285 4.3671875  36.713169642857146 6.286830357142855  C 38.63281250000001 8.206473214285715  40.16052827380953 10.494047619047615  41.296316964285715 13.14955357142857  C 42.43210565476191 15.80505952380952  43 18.588541666666664  43 21.5  C 43 24.39546130952381  42.436104910714285 27.17094494047619  41.308314732142854 29.82645089285714  C 40.18052455357143 32.4819568452381  38.656808035714285 34.76953125  36.73716517857143 36.68917410714286  C 34.81752232142857 38.608816964285715  32.52994791666667 40.14053199404761  29.874441964285715 41.28431919642857  C 27.218936011904766 42.428106398809526  24.427455357142854 43  21.5 43  C 18.572544642857142 43  15.78106398809524 42.432105654761905  13.125558035714285 41.296316964285715  C 10.470052083333334 40.160528273809526  8.18647693452381 38.62881324404761  6.2748325892857135 36.701171875  C 4.363188244047619 34.77353050595238  2.8394717261904763 32.485956101190474  1.7036830357142856 29.838448660714285  C 0.5678943452380951 27.19094122023809  0 24.41145833333333  0 21.5  C 0 18.588541666666664  0.5678943452380951 15.80505952380952  1.7036830357142856 13.14955357142857  C 2.8394717261904763 10.494047619047615  4.3671875 8.206473214285715  6.286830357142858 6.286830357142855  C 8.206473214285714 4.3671875  10.49404761904762 2.839471726190475  13.149553571428573 1.7036830357142851  Z " stroke-width="0" stroke-dasharray="0" stroke="rgba(255, 255, 255, 0)" fill="none" transform="matrix(1 0 0 1 27 85 )" class="stroke" mask="url(#Clip32)" />
    <path d="M 29.01060267857143 24.57142857142857  C 32.849888392857146 24.57142857142857  35.297433035714285 27.186941964285715  36.353236607142854 32.41796875  C 38.73679315476191 29.13857886904762  39.92857142857143 25.49925595238095  39.92857142857143 21.5  C 39.92857142857143 19.004464285714285  39.440662202380956 16.620907738095234  38.46484375 14.349330357142856  C 37.48902529761905 12.077752976190474  36.1772693452381 10.118117559523805  34.529575892857146 8.470424107142856  C 32.8818824404762 6.822730654761905  30.922247023809526 5.51097470238095  28.650669642857146 4.53515625  C 26.379092261904766 3.5593377976190452  23.995535714285715 3.0714285714285703  21.5 3.0714285714285703  C 19.004464285714285 3.0714285714285703  16.62090773809524 3.5593377976190452  14.349330357142858 4.53515625  C 12.077752976190478 5.51097470238095  10.118117559523812 6.822730654761905  8.470424107142858 8.470424107142856  C 6.822730654761906 10.118117559523805  5.5109747023809526 12.077752976190474  4.53515625 14.349330357142856  C 3.559337797619048 16.620907738095234  3.071428571428571 19.004464285714285  3.071428571428571 21.5  C 3.071428571428571 25.49925595238095  4.263206845238096 29.13857886904762  6.646763392857142 32.41796875  C 7.7025669642857135 27.186941964285715  10.150111607142858 24.57142857142857  13.989397321428573 24.57142857142857  C 16.085007440476193 26.61904761904762  18.588541666666668 27.64285714285714  21.5 27.64285714285714  C 24.411458333333336 27.64285714285714  26.91499255952381 26.61904761904762  29.01060267857143 24.57142857142857  Z " stroke-width="0" stroke-dasharray="0" stroke="rgba(255, 255, 255, 0)" fill="none" transform="matrix(1 0 0 1 27 85 )" class="stroke" mask="url(#Clip32)" />
    <path d="M 28.01478794642857 23.407645089285715  C 29.814453125 21.607979910714285  30.714285714285715 19.43638392857143  30.714285714285715 16.892857142857146  C 30.714285714285715 14.349330357142856  29.814453125 12.177734375  28.01478794642857 10.37806919642857  C 26.215122767857146 8.578404017857144  24.043526785714285 7.67857142857143  21.5 7.67857142857143  C 18.956473214285715 7.67857142857143  16.784877232142858 8.578404017857144  14.985212053571427 10.37806919642857  C 13.185546875 12.177734375  12.285714285714285 14.349330357142856  12.285714285714285 16.892857142857146  C 12.285714285714285 19.43638392857143  13.185546875 21.607979910714285  14.985212053571427 23.407645089285715  C 16.784877232142858 25.20731026785714  18.956473214285715 26.10714285714286  21.5 26.10714285714286  C 24.043526785714285 26.10714285714286  26.215122767857146 25.20731026785714  28.01478794642857 23.407645089285715  Z " stroke-width="0" stroke-dasharray="0" stroke="rgba(255, 255, 255, 0)" fill="none" transform="matrix(1 0 0 1 27 85 )" class="stroke" mask="url(#Clip32)" />
  </g>
</svg>