<?xml version="1.0" encoding="utf-8"?>
<svg version="1.1" xmlns:xlink="http://www.w3.org/1999/xlink" width="45px" height="42px" xmlns="http://www.w3.org/2000/svg">
  <defs>
    <pattern id="BGPattern" patternUnits="userSpaceOnUse" alignment="0 0" imageRepeat="None" />
    <mask fill="white" id="Clip101">
      <path d="M 15.129743303571429 20.386046511627903  C 15.757533482142856 19.688372093023254  16.071428571428573 18.846511627906974  16.071428571428573 17.86046511627907  C 16.071428571428573 16.87441860465116  15.757533482142856 16.03255813953488  15.129743303571429 15.33488372093023  C 14.501953125 14.63720930232558  13.744419642857142 14.288372093023254  12.857142857142856 14.288372093023254  C 11.969866071428573 14.288372093023254  11.212332589285715 14.63720930232558  10.584542410714286 15.33488372093023  C 9.956752232142858 16.03255813953488  9.642857142857142 16.87441860465116  9.642857142857142 17.86046511627907  C 9.642857142857142 18.846511627906974  9.956752232142858 19.688372093023254  10.584542410714286 20.386046511627903  C 11.212332589285715 21.083720930232555  11.969866071428573 21.432558139534887  12.857142857142856 21.432558139534887  C 13.744419642857142 21.432558139534887  14.501953125 21.083720930232555  15.129743303571429 20.386046511627903  Z M 24.77260044642857 20.386046511627903  C 25.400390625 19.688372093023254  25.71428571428571 18.846511627906974  25.71428571428571 17.86046511627907  C 25.71428571428571 16.87441860465116  25.400390625 16.03255813953488  24.77260044642857 15.33488372093023  C 24.144810267857142 14.63720930232558  23.38727678571429 14.288372093023254  22.5 14.288372093023254  C 21.612723214285715 14.288372093023254  20.855189732142858 14.63720930232558  20.227399553571427 15.33488372093023  C 19.599609375 16.03255813953488  19.285714285714285 16.87441860465116  19.285714285714285 17.86046511627907  C 19.285714285714285 18.846511627906974  19.599609375 19.688372093023254  20.227399553571427 20.386046511627903  C 20.855189732142858 21.083720930232555  21.612723214285715 21.432558139534887  22.5 21.432558139534887  C 23.38727678571429 21.432558139534887  24.144810267857142 21.083720930232555  24.77260044642857 20.386046511627903  Z M 34.415457589285715 20.386046511627903  C 35.043247767857146 19.688372093023254  35.357142857142854 18.846511627906974  35.357142857142854 17.86046511627907  C 35.357142857142854 16.87441860465116  35.043247767857146 16.03255813953488  34.415457589285715 15.33488372093023  C 33.787667410714285 14.63720930232558  33.03013392857143 14.288372093023254  32.142857142857146 14.288372093023254  C 31.25558035714286 14.288372093023254  30.498046875 14.63720930232558  29.87025669642857 15.33488372093023  C 29.242466517857142 16.03255813953488  28.92857142857143 16.87441860465116  28.92857142857143 17.86046511627907  C 28.92857142857143 18.846511627906974  29.242466517857142 19.688372093023254  29.87025669642857 20.386046511627903  C 30.498046875 21.083720930232555  31.25558035714286 21.432558139534887  32.142857142857146 21.432558139534887  C 33.03013392857143 21.432558139534887  33.787667410714285 21.083720930232555  34.415457589285715 20.386046511627903  Z M 41.986607142857146 8.888372093023255  C 43.995535714285715 11.632558139534883  45 14.623255813953488  45 17.86046511627907  C 45 21.097674418604655  43.995535714285715 24.088372093023253  41.986607142857146 26.832558139534886  C 39.97767857142857 29.57674418604651  37.24888392857143 31.74418604651163  33.800223214285715 33.33488372093023  C 30.351562500000004 34.925581395348836  26.58482142857143 35.72093023255814  22.5 35.72093023255814  C 20.658482142857146 35.72093023255814  18.89229910714286 35.55348837209302  17.201450892857142 35.21860465116279  C 14.305245535714288 38.43720930232558  10.6640625 40.56744186046512  6.277901785714286 41.609302325581396  C 5.407366071428572 41.7953488372093  4.6875 41.91627906976744  4.118303571428571 41.972093023255816  C 3.917410714285714 41.990697674418605  3.733258928571429 41.93488372093024  3.565848214285714 41.8046511627907  C 3.3984375000000004 41.674418604651166  3.289620535714286 41.50697674418605  3.239397321428571 41.30232558139535  C 3.1724330357142856 41.02325581395348  3.33984375 40.67906976744187  3.741629464285714 40.269767441860466  C 3.8253348214285716 40.17674418604651  4.0220424107142865 39.97674418604651  4.331752232142857 39.669767441860465  C 4.641462053571429 39.36279069767442  4.854910714285714 39.14418604651163  4.972098214285714 39.013953488372096  C 5.089285714285715 38.883720930232556  5.285993303571429 38.646511627906975  5.562220982142857 38.30232558139535  C 5.838448660714286 37.95813953488372  6.039341517857142 37.66511627906977  6.164899553571428 37.42325581395349  C 6.290457589285714 37.181395348837206  6.462053571428572 36.83720930232558  6.6796875 36.390697674418604  C 6.897321428571429 35.944186046511625  7.064732142857144 35.497674418604646  7.181919642857142 35.051162790697674  C 7.299107142857143 34.6046511627907  7.420479910714286 34.06976744186046  7.546037946428572 33.44651162790698  C 7.671595982142858 32.82325581395349  7.776227678571429 32.14883720930232  7.859933035714286 31.42325581395349  C 5.415736607142858 29.74883720930233  3.494698660714286 27.734883720930227  2.0968191964285716 25.38139534883721  C 0.6989397321428571 23.027906976744184  0 20.52093023255814  0 17.86046511627907  C 0 14.623255813953488  1.0044642857142858 11.632558139534883  3.013392857142857 8.888372093023255  C 5.02232142857143 6.144186046511622  7.751116071428571 3.976744186046512  11.199776785714286 2.3860465116279084  C 14.648437500000002 0.7953488372093043  18.415178571428573 0  22.5 0  C 26.58482142857143 0  30.351562500000004 0.7953488372093043  33.800223214285715 2.3860465116279084  C 37.24888392857143 3.976744186046512  39.97767857142857 6.144186046511622  41.986607142857146 8.888372093023255  Z " fill-rule="evenodd" />
    </mask>
  </defs>
  <g transform="matrix(1 0 0 1 -247 -19 )">
    <path d="M 15.129743303571429 20.386046511627903  C 15.757533482142856 19.688372093023254  16.071428571428573 18.846511627906974  16.071428571428573 17.86046511627907  C 16.071428571428573 16.87441860465116  15.757533482142856 16.03255813953488  15.129743303571429 15.33488372093023  C 14.501953125 14.63720930232558  13.744419642857142 14.288372093023254  12.857142857142856 14.288372093023254  C 11.969866071428573 14.288372093023254  11.212332589285715 14.63720930232558  10.584542410714286 15.33488372093023  C 9.956752232142858 16.03255813953488  9.642857142857142 16.87441860465116  9.642857142857142 17.86046511627907  C 9.642857142857142 18.846511627906974  9.956752232142858 19.688372093023254  10.584542410714286 20.386046511627903  C 11.212332589285715 21.083720930232555  11.969866071428573 21.432558139534887  12.857142857142856 21.432558139534887  C 13.744419642857142 21.432558139534887  14.501953125 21.083720930232555  15.129743303571429 20.386046511627903  Z M 24.77260044642857 20.386046511627903  C 25.400390625 19.688372093023254  25.71428571428571 18.846511627906974  25.71428571428571 17.86046511627907  C 25.71428571428571 16.87441860465116  25.400390625 16.03255813953488  24.77260044642857 15.33488372093023  C 24.144810267857142 14.63720930232558  23.38727678571429 14.288372093023254  22.5 14.288372093023254  C 21.612723214285715 14.288372093023254  20.855189732142858 14.63720930232558  20.227399553571427 15.33488372093023  C 19.599609375 16.03255813953488  19.285714285714285 16.87441860465116  19.285714285714285 17.86046511627907  C 19.285714285714285 18.846511627906974  19.599609375 19.688372093023254  20.227399553571427 20.386046511627903  C 20.855189732142858 21.083720930232555  21.612723214285715 21.432558139534887  22.5 21.432558139534887  C 23.38727678571429 21.432558139534887  24.144810267857142 21.083720930232555  24.77260044642857 20.386046511627903  Z M 34.415457589285715 20.386046511627903  C 35.043247767857146 19.688372093023254  35.357142857142854 18.846511627906974  35.357142857142854 17.86046511627907  C 35.357142857142854 16.87441860465116  35.043247767857146 16.03255813953488  34.415457589285715 15.33488372093023  C 33.787667410714285 14.63720930232558  33.03013392857143 14.288372093023254  32.142857142857146 14.288372093023254  C 31.25558035714286 14.288372093023254  30.498046875 14.63720930232558  29.87025669642857 15.33488372093023  C 29.242466517857142 16.03255813953488  28.92857142857143 16.87441860465116  28.92857142857143 17.86046511627907  C 28.92857142857143 18.846511627906974  29.242466517857142 19.688372093023254  29.87025669642857 20.386046511627903  C 30.498046875 21.083720930232555  31.25558035714286 21.432558139534887  32.142857142857146 21.432558139534887  C 33.03013392857143 21.432558139534887  33.787667410714285 21.083720930232555  34.415457589285715 20.386046511627903  Z M 41.986607142857146 8.888372093023255  C 43.995535714285715 11.632558139534883  45 14.623255813953488  45 17.86046511627907  C 45 21.097674418604655  43.995535714285715 24.088372093023253  41.986607142857146 26.832558139534886  C 39.97767857142857 29.57674418604651  37.24888392857143 31.74418604651163  33.800223214285715 33.33488372093023  C 30.351562500000004 34.925581395348836  26.58482142857143 35.72093023255814  22.5 35.72093023255814  C 20.658482142857146 35.72093023255814  18.89229910714286 35.55348837209302  17.201450892857142 35.21860465116279  C 14.305245535714288 38.43720930232558  10.6640625 40.56744186046512  6.277901785714286 41.609302325581396  C 5.407366071428572 41.7953488372093  4.6875 41.91627906976744  4.118303571428571 41.972093023255816  C 3.917410714285714 41.990697674418605  3.733258928571429 41.93488372093024  3.565848214285714 41.8046511627907  C 3.3984375000000004 41.674418604651166  3.289620535714286 41.50697674418605  3.239397321428571 41.30232558139535  C 3.1724330357142856 41.02325581395348  3.33984375 40.67906976744187  3.741629464285714 40.269767441860466  C 3.8253348214285716 40.17674418604651  4.0220424107142865 39.97674418604651  4.331752232142857 39.669767441860465  C 4.641462053571429 39.36279069767442  4.854910714285714 39.14418604651163  4.972098214285714 39.013953488372096  C 5.089285714285715 38.883720930232556  5.285993303571429 38.646511627906975  5.562220982142857 38.30232558139535  C 5.838448660714286 37.95813953488372  6.039341517857142 37.66511627906977  6.164899553571428 37.42325581395349  C 6.290457589285714 37.181395348837206  6.462053571428572 36.83720930232558  6.6796875 36.390697674418604  C 6.897321428571429 35.944186046511625  7.064732142857144 35.497674418604646  7.181919642857142 35.051162790697674  C 7.299107142857143 34.6046511627907  7.420479910714286 34.06976744186046  7.546037946428572 33.44651162790698  C 7.671595982142858 32.82325581395349  7.776227678571429 32.14883720930232  7.859933035714286 31.42325581395349  C 5.415736607142858 29.74883720930233  3.494698660714286 27.734883720930227  2.0968191964285716 25.38139534883721  C 0.6989397321428571 23.027906976744184  0 20.52093023255814  0 17.86046511627907  C 0 14.623255813953488  1.0044642857142858 11.632558139534883  3.013392857142857 8.888372093023255  C 5.02232142857143 6.144186046511622  7.751116071428571 3.976744186046512  11.199776785714286 2.3860465116279084  C 14.648437500000002 0.7953488372093043  18.415178571428573 0  22.5 0  C 26.58482142857143 0  30.351562500000004 0.7953488372093043  33.800223214285715 2.3860465116279084  C 37.24888392857143 3.976744186046512  39.97767857142857 6.144186046511622  41.986607142857146 8.888372093023255  Z " fill-rule="nonzero" fill="rgba(0, 77, 141, 1)" stroke="none" transform="matrix(1 0 0 1 247 19 )" class="fill" />
    <path d="M 15.129743303571429 20.386046511627903  C 15.757533482142856 19.688372093023254  16.071428571428573 18.846511627906974  16.071428571428573 17.86046511627907  C 16.071428571428573 16.87441860465116  15.757533482142856 16.03255813953488  15.129743303571429 15.33488372093023  C 14.501953125 14.63720930232558  13.744419642857142 14.288372093023254  12.857142857142856 14.288372093023254  C 11.969866071428573 14.288372093023254  11.212332589285715 14.63720930232558  10.584542410714286 15.33488372093023  C 9.956752232142858 16.03255813953488  9.642857142857142 16.87441860465116  9.642857142857142 17.86046511627907  C 9.642857142857142 18.846511627906974  9.956752232142858 19.688372093023254  10.584542410714286 20.386046511627903  C 11.212332589285715 21.083720930232555  11.969866071428573 21.432558139534887  12.857142857142856 21.432558139534887  C 13.744419642857142 21.432558139534887  14.501953125 21.083720930232555  15.129743303571429 20.386046511627903  Z " stroke-width="0" stroke-dasharray="0" stroke="rgba(255, 255, 255, 0)" fill="none" transform="matrix(1 0 0 1 247 19 )" class="stroke" mask="url(#Clip101)" />
    <path d="M 24.77260044642857 20.386046511627903  C 25.400390625 19.688372093023254  25.71428571428571 18.846511627906974  25.71428571428571 17.86046511627907  C 25.71428571428571 16.87441860465116  25.400390625 16.03255813953488  24.77260044642857 15.33488372093023  C 24.144810267857142 14.63720930232558  23.38727678571429 14.288372093023254  22.5 14.288372093023254  C 21.612723214285715 14.288372093023254  20.855189732142858 14.63720930232558  20.227399553571427 15.33488372093023  C 19.599609375 16.03255813953488  19.285714285714285 16.87441860465116  19.285714285714285 17.86046511627907  C 19.285714285714285 18.846511627906974  19.599609375 19.688372093023254  20.227399553571427 20.386046511627903  C 20.855189732142858 21.083720930232555  21.612723214285715 21.432558139534887  22.5 21.432558139534887  C 23.38727678571429 21.432558139534887  24.144810267857142 21.083720930232555  24.77260044642857 20.386046511627903  Z " stroke-width="0" stroke-dasharray="0" stroke="rgba(255, 255, 255, 0)" fill="none" transform="matrix(1 0 0 1 247 19 )" class="stroke" mask="url(#Clip101)" />
    <path d="M 34.415457589285715 20.386046511627903  C 35.043247767857146 19.688372093023254  35.357142857142854 18.846511627906974  35.357142857142854 17.86046511627907  C 35.357142857142854 16.87441860465116  35.043247767857146 16.03255813953488  34.415457589285715 15.33488372093023  C 33.787667410714285 14.63720930232558  33.03013392857143 14.288372093023254  32.142857142857146 14.288372093023254  C 31.25558035714286 14.288372093023254  30.498046875 14.63720930232558  29.87025669642857 15.33488372093023  C 29.242466517857142 16.03255813953488  28.92857142857143 16.87441860465116  28.92857142857143 17.86046511627907  C 28.92857142857143 18.846511627906974  29.242466517857142 19.688372093023254  29.87025669642857 20.386046511627903  C 30.498046875 21.083720930232555  31.25558035714286 21.432558139534887  32.142857142857146 21.432558139534887  C 33.03013392857143 21.432558139534887  33.787667410714285 21.083720930232555  34.415457589285715 20.386046511627903  Z " stroke-width="0" stroke-dasharray="0" stroke="rgba(255, 255, 255, 0)" fill="none" transform="matrix(1 0 0 1 247 19 )" class="stroke" mask="url(#Clip101)" />
    <path d="M 41.986607142857146 8.888372093023255  C 43.995535714285715 11.632558139534883  45 14.623255813953488  45 17.86046511627907  C 45 21.097674418604655  43.995535714285715 24.088372093023253  41.986607142857146 26.832558139534886  C 39.97767857142857 29.57674418604651  37.24888392857143 31.74418604651163  33.800223214285715 33.33488372093023  C 30.351562500000004 34.925581395348836  26.58482142857143 35.72093023255814  22.5 35.72093023255814  C 20.658482142857146 35.72093023255814  18.89229910714286 35.55348837209302  17.201450892857142 35.21860465116279  C 14.305245535714288 38.43720930232558  10.6640625 40.56744186046512  6.277901785714286 41.609302325581396  C 5.407366071428572 41.7953488372093  4.6875 41.91627906976744  4.118303571428571 41.972093023255816  C 3.917410714285714 41.990697674418605  3.733258928571429 41.93488372093024  3.565848214285714 41.8046511627907  C 3.3984375000000004 41.674418604651166  3.289620535714286 41.50697674418605  3.239397321428571 41.30232558139535  C 3.1724330357142856 41.02325581395348  3.33984375 40.67906976744187  3.741629464285714 40.269767441860466  C 3.8253348214285716 40.17674418604651  4.0220424107142865 39.97674418604651  4.331752232142857 39.669767441860465  C 4.641462053571429 39.36279069767442  4.854910714285714 39.14418604651163  4.972098214285714 39.013953488372096  C 5.089285714285715 38.883720930232556  5.285993303571429 38.646511627906975  5.562220982142857 38.30232558139535  C 5.838448660714286 37.95813953488372  6.039341517857142 37.66511627906977  6.164899553571428 37.42325581395349  C 6.290457589285714 37.181395348837206  6.462053571428572 36.83720930232558  6.6796875 36.390697674418604  C 6.897321428571429 35.944186046511625  7.064732142857144 35.497674418604646  7.181919642857142 35.051162790697674  C 7.299107142857143 34.6046511627907  7.420479910714286 34.06976744186046  7.546037946428572 33.44651162790698  C 7.671595982142858 32.82325581395349  7.776227678571429 32.14883720930232  7.859933035714286 31.42325581395349  C 5.415736607142858 29.74883720930233  3.494698660714286 27.734883720930227  2.0968191964285716 25.38139534883721  C 0.6989397321428571 23.027906976744184  0 20.52093023255814  0 17.86046511627907  C 0 14.623255813953488  1.0044642857142858 11.632558139534883  3.013392857142857 8.888372093023255  C 5.02232142857143 6.144186046511622  7.751116071428571 3.976744186046512  11.199776785714286 2.3860465116279084  C 14.648437500000002 0.7953488372093043  18.415178571428573 0  22.5 0  C 26.58482142857143 0  30.351562500000004 0.7953488372093043  33.800223214285715 2.3860465116279084  C 37.24888392857143 3.976744186046512  39.97767857142857 6.144186046511622  41.986607142857146 8.888372093023255  Z " stroke-width="0" stroke-dasharray="0" stroke="rgba(255, 255, 255, 0)" fill="none" transform="matrix(1 0 0 1 247 19 )" class="stroke" mask="url(#Clip101)" />
  </g>
</svg>