<?xml version="1.0" encoding="utf-8"?>
<svg version="1.1" xmlns:xlink="http://www.w3.org/1999/xlink" width="348px" height="348px" xmlns="http://www.w3.org/2000/svg">
  <g transform="matrix(1 0 0 1 -22 -158 )">
    <path d="M 22 158  L 370 158  L 370 506  L 22 506  L 22 158  " fill-rule="nonzero" fill="rgba(204, 204, 204, 1)" stroke="none" class="fill" />
    <path d="M 46 182  L 346 182  L 346 482  L 46 482  L 46 182  " fill-rule="nonzero" fill="rgba(255, 255, 255, 1)" stroke="none" class="fill" />
    <path d="M 229.06 262.4  C 214.44400000000002 262.4  202.96 250.91599999999997  202.96 236.29999999999998  C 202.96 221.684  214.44400000000002 210.2  229.06 210.2  C 243.676 210.2  255.16 221.684  255.16 236.29999999999998  C 255.16 250.91599999999997  243.676 262.4  229.06 262.4  " fill-rule="nonzero" fill="rgba(204, 204, 204, 1)" stroke="none" class="fill" />
    <path d="M 55 474  L 55 318.35  L 125.75 247.6  L 224.79999999999998 304.20000000000005  L 281.4 290.04999999999995  L 338 304.20000000000005  L 338 474  L 55 474  " fill-rule="nonzero" fill="rgba(22, 155, 213, 1)" stroke="none" class="fill" />
  </g>
</svg>