<?xml version="1.0" encoding="utf-8"?>
<svg version="1.1" xmlns:xlink="http://www.w3.org/1999/xlink" width="351px" height="307px" xmlns="http://www.w3.org/2000/svg">
  <g transform="matrix(1 0 0 1 -22 -158 )">
    <path d="M 22 158  L 373 158  L 373 465  L 22 465  L 22 158  " fill-rule="nonzero" fill="rgba(204, 204, 204, 1)" stroke="none" class="fill" />
    <path d="M 43 179  L 352 179  L 352 444  L 43 444  L 43 179  " fill-rule="nonzero" fill="rgba(255, 255, 255, 1)" stroke="none" class="fill" />
    <path d="M 227.54500000000002 250.10000000000002  C 214.651 250.10000000000002  204.52 239.96900000000002  204.52 227.07500000000002  C 204.52 214.181  214.651 204.05  227.54500000000002 204.05  C 240.439 204.05  250.57 214.181  250.57 227.07500000000002  C 250.57 239.96900000000002  240.439 250.10000000000002  227.54500000000002 250.10000000000002  " fill-rule="nonzero" fill="rgba(204, 204, 204, 1)" stroke="none" class="fill" />
    <path d="M 51 437  L 51 299.5  L 124.5 237  L 227.4 305.8034188034188  L 286.20000000000005 274.5  L 345 305.8034188034188  L 345 437  L 51 437  " fill-rule="nonzero" fill="rgba(22, 155, 213, 1)" stroke="none" class="fill" />
  </g>
</svg>