<?xml version="1.0" encoding="utf-8"?>
<svg version="1.1" xmlns:xlink="http://www.w3.org/1999/xlink" width="54px" height="21px" xmlns="http://www.w3.org/2000/svg">
  <defs>
    <pattern id="BGPattern" patternUnits="userSpaceOnUse" alignment="0 0" imageRepeat="None" />
    <mask fill="white" id="Clip173">
      <path d="M 53.6875 9.803641092327698  C 53.89583333333334 9.985695708712614  54.000000000000014 10.195058517555264  54 10.431729518855656  C 54.000000000000014 10.686605981794537  53.89583333333334 10.905071521456435  53.6875 11.087126137841352  L 41.6875 20.754226267880362  C 41.35416666666667 21.00910273081924  40.989583333333336 21.06371911573472  40.59375 20.91807542262679  C 40.19791666666667 20.754226267880362  40 20.490247074122234  40 20.126137841352406  L 40 14  L 1 14  C 0.7083333333333334 14.009102730819246  0.46875 13.927178153446036  0.28125 13.76332899869961  C 0.09375 13.599479843953185  0 13.39011703511053  0 13.13524057217165  L 0 7.892067620286085  C 0 7.637191157347204  0.09375 7.427828348504551  0.28125 7.263979193758128  C 0.46875 7.100130039011704  0.7083333333333334 7.018205461638491  1 7  L 40 7  L 40 0.9011703511053326  C 40 0.5188556566970096  40.19791666666667 0.25487646293888044  40.59375 0.10923276983094976  C 40.989583333333336 -0.036410923276985585  41.35416666666667 0.009102730819244065  41.6875 0.24577373211963638  L 53.6875 9.803641092327698  Z " fill-rule="evenodd" />
    </mask>
  </defs>
  <g transform="matrix(1 0 0 1 -226 -673 )">
    <path d="M 53.6875 9.803641092327698  C 53.89583333333334 9.985695708712614  54.000000000000014 10.195058517555264  54 10.431729518855656  C 54.000000000000014 10.686605981794537  53.89583333333334 10.905071521456435  53.6875 11.087126137841352  L 41.6875 20.754226267880362  C 41.35416666666667 21.00910273081924  40.989583333333336 21.06371911573472  40.59375 20.91807542262679  C 40.19791666666667 20.754226267880362  40 20.490247074122234  40 20.126137841352406  L 40 14  L 1 14  C 0.7083333333333334 14.009102730819246  0.46875 13.927178153446036  0.28125 13.76332899869961  C 0.09375 13.599479843953185  0 13.39011703511053  0 13.13524057217165  L 0 7.892067620286085  C 0 7.637191157347204  0.09375 7.427828348504551  0.28125 7.263979193758128  C 0.46875 7.100130039011704  0.7083333333333334 7.018205461638491  1 7  L 40 7  L 40 0.9011703511053326  C 40 0.5188556566970096  40.19791666666667 0.25487646293888044  40.59375 0.10923276983094976  C 40.989583333333336 -0.036410923276985585  41.35416666666667 0.009102730819244065  41.6875 0.24577373211963638  L 53.6875 9.803641092327698  Z " fill-rule="nonzero" fill="rgba(0, 140, 255, 1)" stroke="none" transform="matrix(1 0 0 1 226 673 )" class="fill" />
    <path d="M 53.6875 9.803641092327698  C 53.89583333333334 9.985695708712614  54.000000000000014 10.195058517555264  54 10.431729518855656  C 54.000000000000014 10.686605981794537  53.89583333333334 10.905071521456435  53.6875 11.087126137841352  L 41.6875 20.754226267880362  C 41.35416666666667 21.00910273081924  40.989583333333336 21.06371911573472  40.59375 20.91807542262679  C 40.19791666666667 20.754226267880362  40 20.490247074122234  40 20.126137841352406  L 40 14  L 1 14  C 0.7083333333333334 14.009102730819246  0.46875 13.927178153446036  0.28125 13.76332899869961  C 0.09375 13.599479843953185  0 13.39011703511053  0 13.13524057217165  L 0 7.892067620286085  C 0 7.637191157347204  0.09375 7.427828348504551  0.28125 7.263979193758128  C 0.46875 7.100130039011704  0.7083333333333334 7.018205461638491  1 7  L 40 7  L 40 0.9011703511053326  C 40 0.5188556566970096  40.19791666666667 0.25487646293888044  40.59375 0.10923276983094976  C 40.989583333333336 -0.036410923276985585  41.35416666666667 0.009102730819244065  41.6875 0.24577373211963638  L 53.6875 9.803641092327698  Z " stroke-width="0" stroke-dasharray="0" stroke="rgba(255, 255, 255, 0)" fill="none" transform="matrix(1 0 0 1 226 673 )" class="stroke" mask="url(#Clip173)" />
  </g>
</svg>