<?xml version="1.0" encoding="utf-8"?>
<svg version="1.1" xmlns:xlink="http://www.w3.org/1999/xlink" width="32px" height="30px" xmlns="http://www.w3.org/2000/svg">
  <defs>
    <pattern id="BGPattern" patternUnits="userSpaceOnUse" alignment="0 0" imageRepeat="None" />
    <mask fill="white" id="Clip85">
      <path d="M 27.400247831474598 17.139516757599374  C 27.413465510119785 17.17069368667186  27.42007434944238 17.21745908028059  27 17.279812938425565  L 27 28.503507404520654  C 27.42007434944238 28.908807482462976  27.294506402313097 29.25954793452845  27.043370508054522 29.555728760717066  C 26.792234613795955 29.85190958690569  26.494836844279227 30  26.151177199504335 30  L 18.537794299876083 30  L 18.537794299876083 21.02104442712393  L 13.462205700123915 21.02104442712393  L 13.462205700123915 30  L 5.848822800495663 30  C 5.505163155720777 30  5.2077653862040485 29.85190958690569  4.956629491945477 29.555728760717066  C 4.705493597686907 29.25954793452845  4.5799256505576205 28.908807482462976  5 28.503507404520654  L 5 17.279812938425565  C 4.5799256505576205 17.26422447388932  4.583230070218918 17.240841777084956  4.589838909541512 17.20966484801247  C 4.596447748864106 17.178487918939986  4.599752168525403 17.15510522213562  4.599752168525403 17.139516757599374  L 16 6.056118472330475  L 27.400247831474598 17.139516757599374  Z M 31.980173482032217 15.116913484021826  C 31.993391160677408 15.327357755261106  31.94712928541925 15.510522213561963  31.841387856257743 15.666406858924397  L 30.612143742255267 17.39672642244739  C 30.506402313093766 17.53702260327358  30.36761668731929 17.622759158222916  30.195786864931847 17.653936087295403  L 30.1363073110285 17.653936087295403  C 29.96447748864106 17.653936087295403  29.825691862866588 17.599376461418547  29.71995043370508 17.490257209664847  L 16 3.998441153546376  L 2.2800495662949194 17.490257209664847  C 2.121437422552664 17.61496492595479  1.962825278810409 17.669524551831643  1.8042131350681536 17.653936087295403  C 1.6323833126807106 17.622759158222916  1.4935976869062373 17.53702260327358  1.3878562577447335 17.39672642244739  L 0.15861214374225527 15.666406858924397  C 0.05287071458075178 15.510522213561963  0.006608839322594017 15.327357755261106  0.01982651796778191 15.116913484021826  C 0.033044196612969944 14.906469212782541  0.10574142916150356 14.738893219017925  0.2379182156133829 14.614185502727981  L 14.493184634448575 0.6079501169134849  C 14.91615035109459 0.2026500389711583  15.418422139611732 0  16 0  C 16.581577860388272 0  17.083849648905414 0.2026500389711583  17.506815365551425 0.6079501169134849  L 22.34448574969021 5.3780202650038955  L 22.34448574969021 0.8183943881527656  C 22.34448574969021 0.6001558846453592  22.403965303593555 0.42088854247856466  22.522924411400247 0.28059236165237866  C 22.64188351920694 0.14029618082618933  22.7938868236266 0.07014809041309467  22.97893432465923 0.07014809041309467  L 26.78562577447336 0.07014809041309467  C 26.97067327550599 0.07014809041309467  27.12267657992565 0.14029618082618933  27.24163568773234 0.28059236165237866  C 27.360594795539033 0.42088854247856466  27.42007434944238 0.6001558846453592  27.42007434944238 0.8183943881527656  L 27.42007434944238 10.358534684333593  L 31.762081784386616 14.614185502727981  C 31.8942585708385 14.738893219017925  31.966955803387034 14.906469212782541  31.980173482032217 15.116913484021826  Z " fill-rule="evenodd" />
    </mask>
  </defs>
  <g transform="matrix(1 0 0 1 -30 -65 )">
    <path d="M 27.400247831474598 17.139516757599374  C 27.413465510119785 17.17069368667186  27.42007434944238 17.21745908028059  27 17.279812938425565  L 27 28.503507404520654  C 27.42007434944238 28.908807482462976  27.294506402313097 29.25954793452845  27.043370508054522 29.555728760717066  C 26.792234613795955 29.85190958690569  26.494836844279227 30  26.151177199504335 30  L 18.537794299876083 30  L 18.537794299876083 21.02104442712393  L 13.462205700123915 21.02104442712393  L 13.462205700123915 30  L 5.848822800495663 30  C 5.505163155720777 30  5.2077653862040485 29.85190958690569  4.956629491945477 29.555728760717066  C 4.705493597686907 29.25954793452845  4.5799256505576205 28.908807482462976  5 28.503507404520654  L 5 17.279812938425565  C 4.5799256505576205 17.26422447388932  4.583230070218918 17.240841777084956  4.589838909541512 17.20966484801247  C 4.596447748864106 17.178487918939986  4.599752168525403 17.15510522213562  4.599752168525403 17.139516757599374  L 16 6.056118472330475  L 27.400247831474598 17.139516757599374  Z M 31.980173482032217 15.116913484021826  C 31.993391160677408 15.327357755261106  31.94712928541925 15.510522213561963  31.841387856257743 15.666406858924397  L 30.612143742255267 17.39672642244739  C 30.506402313093766 17.53702260327358  30.36761668731929 17.622759158222916  30.195786864931847 17.653936087295403  L 30.1363073110285 17.653936087295403  C 29.96447748864106 17.653936087295403  29.825691862866588 17.599376461418547  29.71995043370508 17.490257209664847  L 16 3.998441153546376  L 2.2800495662949194 17.490257209664847  C 2.121437422552664 17.61496492595479  1.962825278810409 17.669524551831643  1.8042131350681536 17.653936087295403  C 1.6323833126807106 17.622759158222916  1.4935976869062373 17.53702260327358  1.3878562577447335 17.39672642244739  L 0.15861214374225527 15.666406858924397  C 0.05287071458075178 15.510522213561963  0.006608839322594017 15.327357755261106  0.01982651796778191 15.116913484021826  C 0.033044196612969944 14.906469212782541  0.10574142916150356 14.738893219017925  0.2379182156133829 14.614185502727981  L 14.493184634448575 0.6079501169134849  C 14.91615035109459 0.2026500389711583  15.418422139611732 0  16 0  C 16.581577860388272 0  17.083849648905414 0.2026500389711583  17.506815365551425 0.6079501169134849  L 22.34448574969021 5.3780202650038955  L 22.34448574969021 0.8183943881527656  C 22.34448574969021 0.6001558846453592  22.403965303593555 0.42088854247856466  22.522924411400247 0.28059236165237866  C 22.64188351920694 0.14029618082618933  22.7938868236266 0.07014809041309467  22.97893432465923 0.07014809041309467  L 26.78562577447336 0.07014809041309467  C 26.97067327550599 0.07014809041309467  27.12267657992565 0.14029618082618933  27.24163568773234 0.28059236165237866  C 27.360594795539033 0.42088854247856466  27.42007434944238 0.6001558846453592  27.42007434944238 0.8183943881527656  L 27.42007434944238 10.358534684333593  L 31.762081784386616 14.614185502727981  C 31.8942585708385 14.738893219017925  31.966955803387034 14.906469212782541  31.980173482032217 15.116913484021826  Z " fill-rule="nonzero" fill="rgba(0, 140, 255, 1)" stroke="none" transform="matrix(1 0 0 1 30 65 )" class="fill" />
    <path d="M 27.400247831474598 17.139516757599374  C 27.413465510119785 17.17069368667186  27.42007434944238 17.21745908028059  27 17.279812938425565  L 27 28.503507404520654  C 27.42007434944238 28.908807482462976  27.294506402313097 29.25954793452845  27.043370508054522 29.555728760717066  C 26.792234613795955 29.85190958690569  26.494836844279227 30  26.151177199504335 30  L 18.537794299876083 30  L 18.537794299876083 21.02104442712393  L 13.462205700123915 21.02104442712393  L 13.462205700123915 30  L 5.848822800495663 30  C 5.505163155720777 30  5.2077653862040485 29.85190958690569  4.956629491945477 29.555728760717066  C 4.705493597686907 29.25954793452845  4.5799256505576205 28.908807482462976  5 28.503507404520654  L 5 17.279812938425565  C 4.5799256505576205 17.26422447388932  4.583230070218918 17.240841777084956  4.589838909541512 17.20966484801247  C 4.596447748864106 17.178487918939986  4.599752168525403 17.15510522213562  4.599752168525403 17.139516757599374  L 16 6.056118472330475  L 27.400247831474598 17.139516757599374  Z " stroke-width="0" stroke-dasharray="0" stroke="rgba(255, 255, 255, 0)" fill="none" transform="matrix(1 0 0 1 30 65 )" class="stroke" mask="url(#Clip85)" />
    <path d="M 31.980173482032217 15.116913484021826  C 31.993391160677408 15.327357755261106  31.94712928541925 15.510522213561963  31.841387856257743 15.666406858924397  L 30.612143742255267 17.39672642244739  C 30.506402313093766 17.53702260327358  30.36761668731929 17.622759158222916  30.195786864931847 17.653936087295403  L 30.1363073110285 17.653936087295403  C 29.96447748864106 17.653936087295403  29.825691862866588 17.599376461418547  29.71995043370508 17.490257209664847  L 16 3.998441153546376  L 2.2800495662949194 17.490257209664847  C 2.121437422552664 17.61496492595479  1.962825278810409 17.669524551831643  1.8042131350681536 17.653936087295403  C 1.6323833126807106 17.622759158222916  1.4935976869062373 17.53702260327358  1.3878562577447335 17.39672642244739  L 0.15861214374225527 15.666406858924397  C 0.05287071458075178 15.510522213561963  0.006608839322594017 15.327357755261106  0.01982651796778191 15.116913484021826  C 0.033044196612969944 14.906469212782541  0.10574142916150356 14.738893219017925  0.2379182156133829 14.614185502727981  L 14.493184634448575 0.6079501169134849  C 14.91615035109459 0.2026500389711583  15.418422139611732 0  16 0  C 16.581577860388272 0  17.083849648905414 0.2026500389711583  17.506815365551425 0.6079501169134849  L 22.34448574969021 5.3780202650038955  L 22.34448574969021 0.8183943881527656  C 22.34448574969021 0.6001558846453592  22.403965303593555 0.42088854247856466  22.522924411400247 0.28059236165237866  C 22.64188351920694 0.14029618082618933  22.7938868236266 0.07014809041309467  22.97893432465923 0.07014809041309467  L 26.78562577447336 0.07014809041309467  C 26.97067327550599 0.07014809041309467  27.12267657992565 0.14029618082618933  27.24163568773234 0.28059236165237866  C 27.360594795539033 0.42088854247856466  27.42007434944238 0.6001558846453592  27.42007434944238 0.8183943881527656  L 27.42007434944238 10.358534684333593  L 31.762081784386616 14.614185502727981  C 31.8942585708385 14.738893219017925  31.966955803387034 14.906469212782541  31.980173482032217 15.116913484021826  Z " stroke-width="0" stroke-dasharray="0" stroke="rgba(255, 255, 255, 0)" fill="none" transform="matrix(1 0 0 1 30 65 )" class="stroke" mask="url(#Clip85)" />
  </g>
</svg>