<?xml version="1.0" encoding="utf-8"?>
<svg version="1.1" xmlns:xlink="http://www.w3.org/1999/xlink" width="32px" height="30px" xmlns="http://www.w3.org/2000/svg">
  <defs>
    <pattern id="BGPattern" patternUnits="userSpaceOnUse" alignment="0 0" imageRepeat="None" />
    <mask fill="white" id="Clip86">
      <path d="M 10.758928571428571 14.561461794019932  C 11.205357142857142 14.063122923588038  11.428571428571429 13.461794019933553  11.428571428571429 12.757475083056478  C 11.428571428571429 12.0531561461794  11.205357142857142 11.451827242524915  10.758928571428571 10.953488372093021  C 10.3125 10.455149501661129  9.773809523809524 10.205980066445182  9.142857142857142 10.205980066445182  C 8.511904761904763 10.205980066445182  7.9732142857142865 10.455149501661129  7.526785714285714 10.953488372093021  C 7.080357142857143 11.451827242524915  6.857142857142857 12.0531561461794  6.857142857142857 12.757475083056478  C 6.857142857142857 13.461794019933553  7.080357142857143 14.063122923588038  7.526785714285714 14.561461794019932  C 7.9732142857142865 15.059800664451826  8.511904761904763 15.308970099667775  9.142857142857142 15.308970099667775  C 9.773809523809524 15.308970099667775  10.3125 15.059800664451826  10.758928571428571 14.561461794019932  Z M 17.616071428571427 14.561461794019932  C 18.0625 14.063122923588038  18.285714285714285 13.461794019933553  18.285714285714285 12.757475083056478  C 18.285714285714285 12.0531561461794  18.0625 11.451827242524915  17.616071428571427 10.953488372093021  C 17.169642857142858 10.455149501661129  16.630952380952383 10.205980066445182  16 10.205980066445182  C 15.36904761904762 10.205980066445182  14.830357142857144 10.455149501661129  14.383928571428571 10.953488372093021  C 13.9375 11.451827242524915  13.714285714285714 12.0531561461794  13.714285714285714 12.757475083056478  C 13.714285714285714 13.461794019933553  13.9375 14.063122923588038  14.383928571428571 14.561461794019932  C 14.830357142857144 15.059800664451826  15.36904761904762 15.308970099667775  16 15.308970099667775  C 16.630952380952383 15.308970099667775  17.169642857142858 15.059800664451826  17.616071428571427 14.561461794019932  Z M 24.473214285714285 14.561461794019932  C 24.919642857142858 14.063122923588038  25.142857142857142 13.461794019933553  25.142857142857142 12.757475083056478  C 25.142857142857142 12.0531561461794  24.919642857142858 11.451827242524915  24.473214285714285 10.953488372093021  C 24.026785714285715 10.455149501661129  23.48809523809524 10.205980066445182  22.857142857142858 10.205980066445182  C 22.226190476190478 10.205980066445182  21.6875 10.455149501661129  21.241071428571427 10.953488372093021  C 20.794642857142858 11.451827242524915  20.571428571428573 12.0531561461794  20.571428571428573 12.757475083056478  C 20.571428571428573 13.461794019933553  20.794642857142858 14.063122923588038  21.241071428571427 14.561461794019932  C 21.6875 15.059800664451826  22.226190476190478 15.308970099667775  22.857142857142858 15.308970099667775  C 23.48809523809524 15.308970099667775  24.026785714285715 15.059800664451826  24.473214285714285 14.561461794019932  Z M 29.857142857142858 6.348837209302324  C 31.285714285714285 8.308970099667775  32 10.44518272425249  32 12.757475083056478  C 32 15.069767441860467  31.285714285714285 17.20598006644518  29.857142857142858 19.166112956810633  C 28.428571428571427 21.12624584717608  26.48809523809524 22.674418604651162  24.035714285714285 23.81063122923588  C 21.583333333333336 24.946843853820596  18.904761904761905 25.514950166112957  16 25.514950166112957  C 14.690476190476192 25.514950166112957  13.434523809523812 25.3953488372093  12.232142857142858 25.156146179401993  C 10.17261904761905 27.45514950166113  7.583333333333334 28.976744186046513  4.464285714285714 29.72093023255814  C 3.845238095238096 29.853820598006646  3.3333333333333335 29.940199335548176  2.9285714285714284 29.980066445182725  C 2.7857142857142856 29.993355481727576  2.654761904761905 29.953488372093023  2.5357142857142856 29.86046511627907  C 2.416666666666667 29.767441860465116  2.3392857142857144 29.64784053156146  2.3035714285714284 29.501661129568106  C 2.255952380952381 29.302325581395348  2.375 29.056478405315616  2.6607142857142856 28.764119601328904  C 2.7202380952380953 28.697674418604652  2.860119047619048 28.554817275747506  3.080357142857143 28.335548172757477  C 3.300595238095238 28.116279069767444  3.4523809523809526 27.96013289036545  3.5357142857142856 27.867109634551497  C 3.6190476190476195 27.774086378737543  3.7589285714285716 27.604651162790695  3.955357142857143 27.358803986710964  C 4.151785714285714 27.112956810631232  4.294642857142857 26.903654485049838  4.383928571428571 26.730897009966778  C 4.473214285714286 26.558139534883722  4.595238095238096 26.312292358803987  4.75 25.993355481727576  C 4.904761904761905 25.674418604651162  5.023809523809525 25.355481727574748  5.107142857142857 25.036544850498338  C 5.190476190476191 24.717607973421927  5.276785714285714 24.335548172757473  5.366071428571429 23.890365448504983  C 5.455357142857143 23.44518272425249  5.529761904761905 22.96345514950166  5.589285714285714 22.44518272425249  C 3.8511904761904767 21.249169435215947  2.485119047619048 19.810631229235877  1.4910714285714286 18.12956810631229  C 0.4970238095238095 16.448504983388702  0 14.6578073089701  0 12.757475083056478  C 0 10.44518272425249  0.7142857142857143 8.308970099667775  2.142857142857143 6.348837209302324  C 3.571428571428572 4.388704318936872  5.511904761904762 2.8405315614617943  7.964285714285714 1.7043189368770773  C 10.416666666666668 0.5681063122923602  13.095238095238097 0  16 0  C 18.904761904761905 0  21.583333333333336 0.5681063122923602  24.035714285714285 1.7043189368770773  C 26.48809523809524 2.8405315614617943  28.428571428571427 4.388704318936872  29.857142857142858 6.348837209302324  Z " fill-rule="evenodd" />
    </mask>
  </defs>
  <g transform="matrix(1 0 0 1 -106 -65 )">
    <path d="M 10.758928571428571 14.561461794019932  C 11.205357142857142 14.063122923588038  11.428571428571429 13.461794019933553  11.428571428571429 12.757475083056478  C 11.428571428571429 12.0531561461794  11.205357142857142 11.451827242524915  10.758928571428571 10.953488372093021  C 10.3125 10.455149501661129  9.773809523809524 10.205980066445182  9.142857142857142 10.205980066445182  C 8.511904761904763 10.205980066445182  7.9732142857142865 10.455149501661129  7.526785714285714 10.953488372093021  C 7.080357142857143 11.451827242524915  6.857142857142857 12.0531561461794  6.857142857142857 12.757475083056478  C 6.857142857142857 13.461794019933553  7.080357142857143 14.063122923588038  7.526785714285714 14.561461794019932  C 7.9732142857142865 15.059800664451826  8.511904761904763 15.308970099667775  9.142857142857142 15.308970099667775  C 9.773809523809524 15.308970099667775  10.3125 15.059800664451826  10.758928571428571 14.561461794019932  Z M 17.616071428571427 14.561461794019932  C 18.0625 14.063122923588038  18.285714285714285 13.461794019933553  18.285714285714285 12.757475083056478  C 18.285714285714285 12.0531561461794  18.0625 11.451827242524915  17.616071428571427 10.953488372093021  C 17.169642857142858 10.455149501661129  16.630952380952383 10.205980066445182  16 10.205980066445182  C 15.36904761904762 10.205980066445182  14.830357142857144 10.455149501661129  14.383928571428571 10.953488372093021  C 13.9375 11.451827242524915  13.714285714285714 12.0531561461794  13.714285714285714 12.757475083056478  C 13.714285714285714 13.461794019933553  13.9375 14.063122923588038  14.383928571428571 14.561461794019932  C 14.830357142857144 15.059800664451826  15.36904761904762 15.308970099667775  16 15.308970099667775  C 16.630952380952383 15.308970099667775  17.169642857142858 15.059800664451826  17.616071428571427 14.561461794019932  Z M 24.473214285714285 14.561461794019932  C 24.919642857142858 14.063122923588038  25.142857142857142 13.461794019933553  25.142857142857142 12.757475083056478  C 25.142857142857142 12.0531561461794  24.919642857142858 11.451827242524915  24.473214285714285 10.953488372093021  C 24.026785714285715 10.455149501661129  23.48809523809524 10.205980066445182  22.857142857142858 10.205980066445182  C 22.226190476190478 10.205980066445182  21.6875 10.455149501661129  21.241071428571427 10.953488372093021  C 20.794642857142858 11.451827242524915  20.571428571428573 12.0531561461794  20.571428571428573 12.757475083056478  C 20.571428571428573 13.461794019933553  20.794642857142858 14.063122923588038  21.241071428571427 14.561461794019932  C 21.6875 15.059800664451826  22.226190476190478 15.308970099667775  22.857142857142858 15.308970099667775  C 23.48809523809524 15.308970099667775  24.026785714285715 15.059800664451826  24.473214285714285 14.561461794019932  Z M 29.857142857142858 6.348837209302324  C 31.285714285714285 8.308970099667775  32 10.44518272425249  32 12.757475083056478  C 32 15.069767441860467  31.285714285714285 17.20598006644518  29.857142857142858 19.166112956810633  C 28.428571428571427 21.12624584717608  26.48809523809524 22.674418604651162  24.035714285714285 23.81063122923588  C 21.583333333333336 24.946843853820596  18.904761904761905 25.514950166112957  16 25.514950166112957  C 14.690476190476192 25.514950166112957  13.434523809523812 25.3953488372093  12.232142857142858 25.156146179401993  C 10.17261904761905 27.45514950166113  7.583333333333334 28.976744186046513  4.464285714285714 29.72093023255814  C 3.845238095238096 29.853820598006646  3.3333333333333335 29.940199335548176  2.9285714285714284 29.980066445182725  C 2.7857142857142856 29.993355481727576  2.654761904761905 29.953488372093023  2.5357142857142856 29.86046511627907  C 2.416666666666667 29.767441860465116  2.3392857142857144 29.64784053156146  2.3035714285714284 29.501661129568106  C 2.255952380952381 29.302325581395348  2.375 29.056478405315616  2.6607142857142856 28.764119601328904  C 2.7202380952380953 28.697674418604652  2.860119047619048 28.554817275747506  3.080357142857143 28.335548172757477  C 3.300595238095238 28.116279069767444  3.4523809523809526 27.96013289036545  3.5357142857142856 27.867109634551497  C 3.6190476190476195 27.774086378737543  3.7589285714285716 27.604651162790695  3.955357142857143 27.358803986710964  C 4.151785714285714 27.112956810631232  4.294642857142857 26.903654485049838  4.383928571428571 26.730897009966778  C 4.473214285714286 26.558139534883722  4.595238095238096 26.312292358803987  4.75 25.993355481727576  C 4.904761904761905 25.674418604651162  5.023809523809525 25.355481727574748  5.107142857142857 25.036544850498338  C 5.190476190476191 24.717607973421927  5.276785714285714 24.335548172757473  5.366071428571429 23.890365448504983  C 5.455357142857143 23.44518272425249  5.529761904761905 22.96345514950166  5.589285714285714 22.44518272425249  C 3.8511904761904767 21.249169435215947  2.485119047619048 19.810631229235877  1.4910714285714286 18.12956810631229  C 0.4970238095238095 16.448504983388702  0 14.6578073089701  0 12.757475083056478  C 0 10.44518272425249  0.7142857142857143 8.308970099667775  2.142857142857143 6.348837209302324  C 3.571428571428572 4.388704318936872  5.511904761904762 2.8405315614617943  7.964285714285714 1.7043189368770773  C 10.416666666666668 0.5681063122923602  13.095238095238097 0  16 0  C 18.904761904761905 0  21.583333333333336 0.5681063122923602  24.035714285714285 1.7043189368770773  C 26.48809523809524 2.8405315614617943  28.428571428571427 4.388704318936872  29.857142857142858 6.348837209302324  Z " fill-rule="nonzero" fill="rgba(0, 77, 141, 1)" stroke="none" transform="matrix(1 0 0 1 106 65 )" class="fill" />
    <path d="M 10.758928571428571 14.561461794019932  C 11.205357142857142 14.063122923588038  11.428571428571429 13.461794019933553  11.428571428571429 12.757475083056478  C 11.428571428571429 12.0531561461794  11.205357142857142 11.451827242524915  10.758928571428571 10.953488372093021  C 10.3125 10.455149501661129  9.773809523809524 10.205980066445182  9.142857142857142 10.205980066445182  C 8.511904761904763 10.205980066445182  7.9732142857142865 10.455149501661129  7.526785714285714 10.953488372093021  C 7.080357142857143 11.451827242524915  6.857142857142857 12.0531561461794  6.857142857142857 12.757475083056478  C 6.857142857142857 13.461794019933553  7.080357142857143 14.063122923588038  7.526785714285714 14.561461794019932  C 7.9732142857142865 15.059800664451826  8.511904761904763 15.308970099667775  9.142857142857142 15.308970099667775  C 9.773809523809524 15.308970099667775  10.3125 15.059800664451826  10.758928571428571 14.561461794019932  Z " stroke-width="0" stroke-dasharray="0" stroke="rgba(255, 255, 255, 0)" fill="none" transform="matrix(1 0 0 1 106 65 )" class="stroke" mask="url(#Clip86)" />
    <path d="M 17.616071428571427 14.561461794019932  C 18.0625 14.063122923588038  18.285714285714285 13.461794019933553  18.285714285714285 12.757475083056478  C 18.285714285714285 12.0531561461794  18.0625 11.451827242524915  17.616071428571427 10.953488372093021  C 17.169642857142858 10.455149501661129  16.630952380952383 10.205980066445182  16 10.205980066445182  C 15.36904761904762 10.205980066445182  14.830357142857144 10.455149501661129  14.383928571428571 10.953488372093021  C 13.9375 11.451827242524915  13.714285714285714 12.0531561461794  13.714285714285714 12.757475083056478  C 13.714285714285714 13.461794019933553  13.9375 14.063122923588038  14.383928571428571 14.561461794019932  C 14.830357142857144 15.059800664451826  15.36904761904762 15.308970099667775  16 15.308970099667775  C 16.630952380952383 15.308970099667775  17.169642857142858 15.059800664451826  17.616071428571427 14.561461794019932  Z " stroke-width="0" stroke-dasharray="0" stroke="rgba(255, 255, 255, 0)" fill="none" transform="matrix(1 0 0 1 106 65 )" class="stroke" mask="url(#Clip86)" />
    <path d="M 24.473214285714285 14.561461794019932  C 24.919642857142858 14.063122923588038  25.142857142857142 13.461794019933553  25.142857142857142 12.757475083056478  C 25.142857142857142 12.0531561461794  24.919642857142858 11.451827242524915  24.473214285714285 10.953488372093021  C 24.026785714285715 10.455149501661129  23.48809523809524 10.205980066445182  22.857142857142858 10.205980066445182  C 22.226190476190478 10.205980066445182  21.6875 10.455149501661129  21.241071428571427 10.953488372093021  C 20.794642857142858 11.451827242524915  20.571428571428573 12.0531561461794  20.571428571428573 12.757475083056478  C 20.571428571428573 13.461794019933553  20.794642857142858 14.063122923588038  21.241071428571427 14.561461794019932  C 21.6875 15.059800664451826  22.226190476190478 15.308970099667775  22.857142857142858 15.308970099667775  C 23.48809523809524 15.308970099667775  24.026785714285715 15.059800664451826  24.473214285714285 14.561461794019932  Z " stroke-width="0" stroke-dasharray="0" stroke="rgba(255, 255, 255, 0)" fill="none" transform="matrix(1 0 0 1 106 65 )" class="stroke" mask="url(#Clip86)" />
    <path d="M 29.857142857142858 6.348837209302324  C 31.285714285714285 8.308970099667775  32 10.44518272425249  32 12.757475083056478  C 32 15.069767441860467  31.285714285714285 17.20598006644518  29.857142857142858 19.166112956810633  C 28.428571428571427 21.12624584717608  26.48809523809524 22.674418604651162  24.035714285714285 23.81063122923588  C 21.583333333333336 24.946843853820596  18.904761904761905 25.514950166112957  16 25.514950166112957  C 14.690476190476192 25.514950166112957  13.434523809523812 25.3953488372093  12.232142857142858 25.156146179401993  C 10.17261904761905 27.45514950166113  7.583333333333334 28.976744186046513  4.464285714285714 29.72093023255814  C 3.845238095238096 29.853820598006646  3.3333333333333335 29.940199335548176  2.9285714285714284 29.980066445182725  C 2.7857142857142856 29.993355481727576  2.654761904761905 29.953488372093023  2.5357142857142856 29.86046511627907  C 2.416666666666667 29.767441860465116  2.3392857142857144 29.64784053156146  2.3035714285714284 29.501661129568106  C 2.255952380952381 29.302325581395348  2.375 29.056478405315616  2.6607142857142856 28.764119601328904  C 2.7202380952380953 28.697674418604652  2.860119047619048 28.554817275747506  3.080357142857143 28.335548172757477  C 3.300595238095238 28.116279069767444  3.4523809523809526 27.96013289036545  3.5357142857142856 27.867109634551497  C 3.6190476190476195 27.774086378737543  3.7589285714285716 27.604651162790695  3.955357142857143 27.358803986710964  C 4.151785714285714 27.112956810631232  4.294642857142857 26.903654485049838  4.383928571428571 26.730897009966778  C 4.473214285714286 26.558139534883722  4.595238095238096 26.312292358803987  4.75 25.993355481727576  C 4.904761904761905 25.674418604651162  5.023809523809525 25.355481727574748  5.107142857142857 25.036544850498338  C 5.190476190476191 24.717607973421927  5.276785714285714 24.335548172757473  5.366071428571429 23.890365448504983  C 5.455357142857143 23.44518272425249  5.529761904761905 22.96345514950166  5.589285714285714 22.44518272425249  C 3.8511904761904767 21.249169435215947  2.485119047619048 19.810631229235877  1.4910714285714286 18.12956810631229  C 0.4970238095238095 16.448504983388702  0 14.6578073089701  0 12.757475083056478  C 0 10.44518272425249  0.7142857142857143 8.308970099667775  2.142857142857143 6.348837209302324  C 3.571428571428572 4.388704318936872  5.511904761904762 2.8405315614617943  7.964285714285714 1.7043189368770773  C 10.416666666666668 0.5681063122923602  13.095238095238097 0  16 0  C 18.904761904761905 0  21.583333333333336 0.5681063122923602  24.035714285714285 1.7043189368770773  C 26.48809523809524 2.8405315614617943  28.428571428571427 4.388704318936872  29.857142857142858 6.348837209302324  Z " stroke-width="0" stroke-dasharray="0" stroke="rgba(255, 255, 255, 0)" fill="none" transform="matrix(1 0 0 1 106 65 )" class="stroke" mask="url(#Clip86)" />
  </g>
</svg>