<?xml version="1.0" encoding="utf-8"?>
<svg version="1.1" xmlns:xlink="http://www.w3.org/1999/xlink" width="30px" height="30px" xmlns="http://www.w3.org/2000/svg">
  <defs>
    <pattern id="BGPattern" patternUnits="userSpaceOnUse" alignment="0 0" imageRepeat="None" />
    <mask fill="white" id="Clip90">
      <path d="M 5.454545454545455 21.81818181818182  L 8.181818181818182 21.81818181818182  L 8.181818181818182 24.545454545454543  L 5.454545454545455 24.545454545454543  L 5.454545454545455 21.81818181818182  Z M 5.454545454545455 5.454545454545453  L 8.181818181818182 5.454545454545453  L 8.181818181818182 8.181818181818182  L 5.454545454545455 8.181818181818182  L 5.454545454545455 5.454545454545453  Z M 21.81818181818182 5.454545454545453  L 24.545454545454547 5.454545454545453  L 24.545454545454547 8.181818181818182  L 21.81818181818182 8.181818181818182  L 21.81818181818182 5.454545454545453  Z M 2.7272727272727275 19.09090909090909  L 2.7272727272727275 27.251420454545457  L 10.90909090909091 27.251420454545457  L 10.90909090909091 19.09090909090909  L 2.7272727272727275 19.09090909090909  Z M 2.7272727272727275 2.7272727272727284  L 2.7272727272727275 10.90909090909091  L 10.90909090909091 10.90909090909091  L 10.90909090909091 2.7272727272727284  L 2.7272727272727275 2.7272727272727284  Z M 19.09090909090909 2.7272727272727284  L 19.09090909090909 10.90909090909091  L 27.272727272727273 10.90909090909091  L 27.272727272727273 2.7272727272727284  L 19.09090909090909 2.7272727272727284  Z M 0 16  L 14 16  L 14 30  L 0 30  L 0 16  Z M 21.81818181818182 27.272727272727273  L 24.545454545454547 27.272727272727273  L 24.545454545454547 30  L 21.81818181818182 30  L 21.81818181818182 27.272727272727273  Z M 27.272727272727273 27.272727272727273  L 30 27.272727272727273  L 30 30  L 27.272727272727273 30  L 27.272727272727273 27.272727272727273  Z M 27.272727272727273 16.363636363636363  L 30 16.363636363636363  L 30 24.545454545454543  L 21.81818181818182 24.545454545454543  L 21.81818181818182 21.81818181818182  L 19.09090909090909 21.81818181818182  L 19.09090909090909 30  L 16 30  L 16 16.363636363636363  L 24.545454545454547 16.363636363636363  L 24.545454545454547 19.09090909090909  L 27.272727272727273 19.09090909090909  L 27.272727272727273 16.363636363636363  Z M 0 0  L 14 0  L 14 14  L 0 14  L 0 0  Z M 16 0  L 30 0  L 30 14  L 16 14  L 16 0  Z " fill-rule="evenodd" />
    </mask>
  </defs>
  <g transform="matrix(1 0 0 1 -333 -65 )">
    <path d="M 5.454545454545455 21.81818181818182  L 8.181818181818182 21.81818181818182  L 8.181818181818182 24.545454545454543  L 5.454545454545455 24.545454545454543  L 5.454545454545455 21.81818181818182  Z M 5.454545454545455 5.454545454545453  L 8.181818181818182 5.454545454545453  L 8.181818181818182 8.181818181818182  L 5.454545454545455 8.181818181818182  L 5.454545454545455 5.454545454545453  Z M 21.81818181818182 5.454545454545453  L 24.545454545454547 5.454545454545453  L 24.545454545454547 8.181818181818182  L 21.81818181818182 8.181818181818182  L 21.81818181818182 5.454545454545453  Z M 2.7272727272727275 19.09090909090909  L 2.7272727272727275 27.251420454545457  L 10.90909090909091 27.251420454545457  L 10.90909090909091 19.09090909090909  L 2.7272727272727275 19.09090909090909  Z M 2.7272727272727275 2.7272727272727284  L 2.7272727272727275 10.90909090909091  L 10.90909090909091 10.90909090909091  L 10.90909090909091 2.7272727272727284  L 2.7272727272727275 2.7272727272727284  Z M 19.09090909090909 2.7272727272727284  L 19.09090909090909 10.90909090909091  L 27.272727272727273 10.90909090909091  L 27.272727272727273 2.7272727272727284  L 19.09090909090909 2.7272727272727284  Z M 0 16  L 14 16  L 14 30  L 0 30  L 0 16  Z M 21.81818181818182 27.272727272727273  L 24.545454545454547 27.272727272727273  L 24.545454545454547 30  L 21.81818181818182 30  L 21.81818181818182 27.272727272727273  Z M 27.272727272727273 27.272727272727273  L 30 27.272727272727273  L 30 30  L 27.272727272727273 30  L 27.272727272727273 27.272727272727273  Z M 27.272727272727273 16.363636363636363  L 30 16.363636363636363  L 30 24.545454545454543  L 21.81818181818182 24.545454545454543  L 21.81818181818182 21.81818181818182  L 19.09090909090909 21.81818181818182  L 19.09090909090909 30  L 16 30  L 16 16.363636363636363  L 24.545454545454547 16.363636363636363  L 24.545454545454547 19.09090909090909  L 27.272727272727273 19.09090909090909  L 27.272727272727273 16.363636363636363  Z M 0 0  L 14 0  L 14 14  L 0 14  L 0 0  Z M 16 0  L 30 0  L 30 14  L 16 14  L 16 0  Z " fill-rule="nonzero" fill="rgba(0, 140, 255, 1)" stroke="none" transform="matrix(1 0 0 1 333 65 )" class="fill" />
    <path d="M 5.454545454545455 21.81818181818182  L 8.181818181818182 21.81818181818182  L 8.181818181818182 24.545454545454543  L 5.454545454545455 24.545454545454543  L 5.454545454545455 21.81818181818182  Z " stroke-width="0" stroke-dasharray="0" stroke="rgba(255, 255, 255, 0)" fill="none" transform="matrix(1 0 0 1 333 65 )" class="stroke" mask="url(#Clip90)" />
    <path d="M 5.454545454545455 5.454545454545453  L 8.181818181818182 5.454545454545453  L 8.181818181818182 8.181818181818182  L 5.454545454545455 8.181818181818182  L 5.454545454545455 5.454545454545453  Z " stroke-width="0" stroke-dasharray="0" stroke="rgba(255, 255, 255, 0)" fill="none" transform="matrix(1 0 0 1 333 65 )" class="stroke" mask="url(#Clip90)" />
    <path d="M 21.81818181818182 5.454545454545453  L 24.545454545454547 5.454545454545453  L 24.545454545454547 8.181818181818182  L 21.81818181818182 8.181818181818182  L 21.81818181818182 5.454545454545453  Z " stroke-width="0" stroke-dasharray="0" stroke="rgba(255, 255, 255, 0)" fill="none" transform="matrix(1 0 0 1 333 65 )" class="stroke" mask="url(#Clip90)" />
    <path d="M 2.7272727272727275 19.09090909090909  L 2.7272727272727275 27.251420454545457  L 10.90909090909091 27.251420454545457  L 10.90909090909091 19.09090909090909  L 2.7272727272727275 19.09090909090909  Z " stroke-width="0" stroke-dasharray="0" stroke="rgba(255, 255, 255, 0)" fill="none" transform="matrix(1 0 0 1 333 65 )" class="stroke" mask="url(#Clip90)" />
    <path d="M 2.7272727272727275 2.7272727272727284  L 2.7272727272727275 10.90909090909091  L 10.90909090909091 10.90909090909091  L 10.90909090909091 2.7272727272727284  L 2.7272727272727275 2.7272727272727284  Z " stroke-width="0" stroke-dasharray="0" stroke="rgba(255, 255, 255, 0)" fill="none" transform="matrix(1 0 0 1 333 65 )" class="stroke" mask="url(#Clip90)" />
    <path d="M 19.09090909090909 2.7272727272727284  L 19.09090909090909 10.90909090909091  L 27.272727272727273 10.90909090909091  L 27.272727272727273 2.7272727272727284  L 19.09090909090909 2.7272727272727284  Z " stroke-width="0" stroke-dasharray="0" stroke="rgba(255, 255, 255, 0)" fill="none" transform="matrix(1 0 0 1 333 65 )" class="stroke" mask="url(#Clip90)" />
    <path d="M 0 16  L 14 16  L 14 30  L 0 30  L 0 16  Z " stroke-width="0" stroke-dasharray="0" stroke="rgba(255, 255, 255, 0)" fill="none" transform="matrix(1 0 0 1 333 65 )" class="stroke" mask="url(#Clip90)" />
    <path d="M 21.81818181818182 27.272727272727273  L 24.545454545454547 27.272727272727273  L 24.545454545454547 30  L 21.81818181818182 30  L 21.81818181818182 27.272727272727273  Z " stroke-width="0" stroke-dasharray="0" stroke="rgba(255, 255, 255, 0)" fill="none" transform="matrix(1 0 0 1 333 65 )" class="stroke" mask="url(#Clip90)" />
    <path d="M 27.272727272727273 27.272727272727273  L 30 27.272727272727273  L 30 30  L 27.272727272727273 30  L 27.272727272727273 27.272727272727273  Z " stroke-width="0" stroke-dasharray="0" stroke="rgba(255, 255, 255, 0)" fill="none" transform="matrix(1 0 0 1 333 65 )" class="stroke" mask="url(#Clip90)" />
    <path d="M 27.272727272727273 16.363636363636363  L 30 16.363636363636363  L 30 24.545454545454543  L 21.81818181818182 24.545454545454543  L 21.81818181818182 21.81818181818182  L 19.09090909090909 21.81818181818182  L 19.09090909090909 30  L 16 30  L 16 16.363636363636363  L 24.545454545454547 16.363636363636363  L 24.545454545454547 19.09090909090909  L 27.272727272727273 19.09090909090909  L 27.272727272727273 16.363636363636363  Z " stroke-width="0" stroke-dasharray="0" stroke="rgba(255, 255, 255, 0)" fill="none" transform="matrix(1 0 0 1 333 65 )" class="stroke" mask="url(#Clip90)" />
    <path d="M 0 0  L 14 0  L 14 14  L 0 14  L 0 0  Z " stroke-width="0" stroke-dasharray="0" stroke="rgba(255, 255, 255, 0)" fill="none" transform="matrix(1 0 0 1 333 65 )" class="stroke" mask="url(#Clip90)" />
    <path d="M 16 0  L 30 0  L 30 14  L 16 14  L 16 0  Z " stroke-width="0" stroke-dasharray="0" stroke="rgba(255, 255, 255, 0)" fill="none" transform="matrix(1 0 0 1 333 65 )" class="stroke" mask="url(#Clip90)" />
  </g>
</svg>