<?xml version="1.0" encoding="utf-8"?>
<svg version="1.1" xmlns:xlink="http://www.w3.org/1999/xlink" width="53px" height="53px" xmlns="http://www.w3.org/2000/svg">
  <defs>
    <pattern id="BGPattern" patternUnits="userSpaceOnUse" alignment="0 0" imageRepeat="None" />
    <mask fill="white" id="Clip11">
      <path d="M 0 26.5  C 0 11.659999999999998  11.659999999999998 0  26.5 0  C 41.34 0  53 11.659999999999998  53 26.5  C 53 41.34  41.34 53  26.5 53  C 11.659999999999998 53  0 41.34  0 26.5  Z " fill-rule="evenodd" />
    </mask>
  </defs>
  <g>
    <path d="M 0 26.5  C 0 11.659999999999998  11.659999999999998 0  26.5 0  C 41.34 0  53 11.659999999999998  53 26.5  C 53 41.34  41.34 53  26.5 53  C 11.659999999999998 53  0 41.34  0 26.5  Z " fill-rule="nonzero" fill="rgba(255, 255, 255, 1)" stroke="none" class="fill" />
    <path d="M 0 26.5  C 0 11.659999999999998  11.659999999999998 0  26.5 0  C 41.34 0  53 11.659999999999998  53 26.5  C 53 41.34  41.34 53  26.5 53  C 11.659999999999998 53  0 41.34  0 26.5  Z " stroke-width="8" stroke-dasharray="0" stroke="rgba(0, 140, 255, 1)" fill="none" class="stroke" mask="url(#Clip11)" />
  </g>
</svg>