<?xml version="1.0" encoding="utf-8"?>
<svg version="1.1" xmlns:xlink="http://www.w3.org/1999/xlink" width="35px" height="33px" xmlns="http://www.w3.org/2000/svg">
  <defs>
    <pattern id="BGPattern" patternUnits="userSpaceOnUse" alignment="0 0" imageRepeat="None" />
    <mask fill="white" id="Clip34">
      <path d="M 11.767578125 16.017607973421924  C 12.255859375 15.469435215946842  12.5 14.807973421926908  12.5 14.033222591362126  C 12.5 13.258471760797342  12.255859375 12.597009966777406  11.767578125 12.048837209302324  C 11.279296875 11.500664451827241  10.690104166666666 11.2265780730897  10 11.2265780730897  C 9.309895833333334 11.2265780730897  8.720703125 11.500664451827241  8.232421875 12.048837209302324  C 7.744140625 12.597009966777406  7.5 13.258471760797342  7.5 14.033222591362126  C 7.5 14.807973421926908  7.744140625 15.469435215946842  8.232421875 16.017607973421924  C 8.720703125 16.565780730897007  9.309895833333334 16.839867109634554  10 16.839867109634554  C 10.690104166666666 16.839867109634554  11.279296875 16.565780730897007  11.767578125 16.017607973421924  Z M 19.267578125 16.017607973421924  C 19.755859375 15.469435215946842  20 14.807973421926908  20 14.033222591362126  C 20 13.258471760797342  19.755859375 12.597009966777406  19.267578125 12.048837209302324  C 18.779296875 11.500664451827241  18.190104166666668 11.2265780730897  17.5 11.2265780730897  C 16.809895833333336 11.2265780730897  16.220703125 11.500664451827241  15.732421875 12.048837209302324  C 15.244140625 12.597009966777406  15 13.258471760797342  15 14.033222591362126  C 15 14.807973421926908  15.244140625 15.469435215946842  15.732421875 16.017607973421924  C 16.220703125 16.565780730897007  16.809895833333336 16.839867109634554  17.5 16.839867109634554  C 18.190104166666668 16.839867109634554  18.779296875 16.565780730897007  19.267578125 16.017607973421924  Z M 26.767578125 16.017607973421924  C 27.255859375 15.469435215946842  27.5 14.807973421926908  27.5 14.033222591362126  C 27.5 13.258471760797342  27.255859375 12.597009966777406  26.767578125 12.048837209302324  C 26.279296875 11.500664451827241  25.69010416666667 11.2265780730897  25 11.2265780730897  C 24.309895833333336 11.2265780730897  23.720703125 11.500664451827241  23.232421875 12.048837209302324  C 22.744140625 12.597009966777406  22.5 13.258471760797342  22.5 14.033222591362126  C 22.5 14.807973421926908  22.744140625 15.469435215946842  23.232421875 16.017607973421924  C 23.720703125 16.565780730897007  24.309895833333336 16.839867109634554  25 16.839867109634554  C 25.69010416666667 16.839867109634554  26.279296875 16.565780730897007  26.767578125 16.017607973421924  Z M 32.65625 6.983720930232558  C 34.21875 9.139867109634551  35 11.48970099667774  35 14.033222591362126  C 35 16.576744186046515  34.21875 18.926578073089697  32.65625 21.082724252491694  C 31.09375 23.238870431893687  28.97135416666667 24.941860465116278  26.2890625 26.19169435215947  C 23.606770833333336 27.441528239202658  20.677083333333332 28.06644518272425  17.5 28.06644518272425  C 16.067708333333336 28.06644518272425  14.69401041666667 27.934883720930234  13.37890625 27.67176079734219  C 11.126302083333336 30.20066445182724  8.294270833333334 31.874418604651165  4.8828125 32.693023255813955  C 4.205729166666667 32.83920265780731  3.6458333333333335 32.93421926910299  3.203125 32.978073089701  C 3.046875 32.992691029900335  2.903645833333334 32.948837209302326  2.7734375 32.84651162790698  C 2.643229166666667 32.74418604651163  2.55859375 32.61262458471761  2.51953125 32.451827242524914  C 2.4674479166666665 32.23255813953488  2.59765625 31.962126245847177  2.91015625 31.640531561461795  C 2.975260416666667 31.567441860465117  3.1282552083333335 31.410299003322258  3.369140625 31.169102990033224  C 3.6100260416666665 30.927906976744186  3.776041666666667 30.756146179401995  3.8671875 30.653820598006646  C 3.958333333333334 30.551495016611295  4.111328125 30.365116279069763  4.326171875 30.09468438538206  C 4.541015625 29.824252491694352  4.697265625 29.594019933554822  4.794921875 29.403986710963455  C 4.892578125 29.21395348837209  5.026041666666667 28.943521594684384  5.1953125 28.592691029900333  C 5.364583333333334 28.24186046511628  5.494791666666668 27.891029900332224  5.5859375 27.540199335548174  C 5.677083333333334 27.189368770764123  5.771484375 26.769102990033222  5.869140625 26.27940199335548  C 5.966796875 25.78970099667774  6.048177083333334 25.259800664451827  6.11328125 24.68970099667774  C 4.212239583333334 23.374086378737545  2.7180989583333335 21.791694352159464  1.630859375 19.94252491694352  C 0.5436197916666666 18.09335548172757  0 16.12358803986711  0 14.033222591362126  C 0 11.48970099667774  0.78125 9.139867109634551  2.34375 6.983720930232558  C 3.906250000000001 4.82757475083056  6.028645833333333 3.1245847176079735  8.7109375 1.874750830564785  C 11.393229166666668 0.6249169435215962  14.322916666666668 0  17.5 0  C 20.677083333333332 0  23.606770833333336 0.6249169435215962  26.2890625 1.874750830564785  C 28.97135416666667 3.1245847176079735  31.09375 4.82757475083056  32.65625 6.983720930232558  Z " fill-rule="evenodd" />
    </mask>
  </defs>
  <g transform="matrix(1 0 0 1 -309 -90 )">
    <path d="M 11.767578125 16.017607973421924  C 12.255859375 15.469435215946842  12.5 14.807973421926908  12.5 14.033222591362126  C 12.5 13.258471760797342  12.255859375 12.597009966777406  11.767578125 12.048837209302324  C 11.279296875 11.500664451827241  10.690104166666666 11.2265780730897  10 11.2265780730897  C 9.309895833333334 11.2265780730897  8.720703125 11.500664451827241  8.232421875 12.048837209302324  C 7.744140625 12.597009966777406  7.5 13.258471760797342  7.5 14.033222591362126  C 7.5 14.807973421926908  7.744140625 15.469435215946842  8.232421875 16.017607973421924  C 8.720703125 16.565780730897007  9.309895833333334 16.839867109634554  10 16.839867109634554  C 10.690104166666666 16.839867109634554  11.279296875 16.565780730897007  11.767578125 16.017607973421924  Z M 19.267578125 16.017607973421924  C 19.755859375 15.469435215946842  20 14.807973421926908  20 14.033222591362126  C 20 13.258471760797342  19.755859375 12.597009966777406  19.267578125 12.048837209302324  C 18.779296875 11.500664451827241  18.190104166666668 11.2265780730897  17.5 11.2265780730897  C 16.809895833333336 11.2265780730897  16.220703125 11.500664451827241  15.732421875 12.048837209302324  C 15.244140625 12.597009966777406  15 13.258471760797342  15 14.033222591362126  C 15 14.807973421926908  15.244140625 15.469435215946842  15.732421875 16.017607973421924  C 16.220703125 16.565780730897007  16.809895833333336 16.839867109634554  17.5 16.839867109634554  C 18.190104166666668 16.839867109634554  18.779296875 16.565780730897007  19.267578125 16.017607973421924  Z M 26.767578125 16.017607973421924  C 27.255859375 15.469435215946842  27.5 14.807973421926908  27.5 14.033222591362126  C 27.5 13.258471760797342  27.255859375 12.597009966777406  26.767578125 12.048837209302324  C 26.279296875 11.500664451827241  25.69010416666667 11.2265780730897  25 11.2265780730897  C 24.309895833333336 11.2265780730897  23.720703125 11.500664451827241  23.232421875 12.048837209302324  C 22.744140625 12.597009966777406  22.5 13.258471760797342  22.5 14.033222591362126  C 22.5 14.807973421926908  22.744140625 15.469435215946842  23.232421875 16.017607973421924  C 23.720703125 16.565780730897007  24.309895833333336 16.839867109634554  25 16.839867109634554  C 25.69010416666667 16.839867109634554  26.279296875 16.565780730897007  26.767578125 16.017607973421924  Z M 32.65625 6.983720930232558  C 34.21875 9.139867109634551  35 11.48970099667774  35 14.033222591362126  C 35 16.576744186046515  34.21875 18.926578073089697  32.65625 21.082724252491694  C 31.09375 23.238870431893687  28.97135416666667 24.941860465116278  26.2890625 26.19169435215947  C 23.606770833333336 27.441528239202658  20.677083333333332 28.06644518272425  17.5 28.06644518272425  C 16.067708333333336 28.06644518272425  14.69401041666667 27.934883720930234  13.37890625 27.67176079734219  C 11.126302083333336 30.20066445182724  8.294270833333334 31.874418604651165  4.8828125 32.693023255813955  C 4.205729166666667 32.83920265780731  3.6458333333333335 32.93421926910299  3.203125 32.978073089701  C 3.046875 32.992691029900335  2.903645833333334 32.948837209302326  2.7734375 32.84651162790698  C 2.643229166666667 32.74418604651163  2.55859375 32.61262458471761  2.51953125 32.451827242524914  C 2.4674479166666665 32.23255813953488  2.59765625 31.962126245847177  2.91015625 31.640531561461795  C 2.975260416666667 31.567441860465117  3.1282552083333335 31.410299003322258  3.369140625 31.169102990033224  C 3.6100260416666665 30.927906976744186  3.776041666666667 30.756146179401995  3.8671875 30.653820598006646  C 3.958333333333334 30.551495016611295  4.111328125 30.365116279069763  4.326171875 30.09468438538206  C 4.541015625 29.824252491694352  4.697265625 29.594019933554822  4.794921875 29.403986710963455  C 4.892578125 29.21395348837209  5.026041666666667 28.943521594684384  5.1953125 28.592691029900333  C 5.364583333333334 28.24186046511628  5.494791666666668 27.891029900332224  5.5859375 27.540199335548174  C 5.677083333333334 27.189368770764123  5.771484375 26.769102990033222  5.869140625 26.27940199335548  C 5.966796875 25.78970099667774  6.048177083333334 25.259800664451827  6.11328125 24.68970099667774  C 4.212239583333334 23.374086378737545  2.7180989583333335 21.791694352159464  1.630859375 19.94252491694352  C 0.5436197916666666 18.09335548172757  0 16.12358803986711  0 14.033222591362126  C 0 11.48970099667774  0.78125 9.139867109634551  2.34375 6.983720930232558  C 3.906250000000001 4.82757475083056  6.028645833333333 3.1245847176079735  8.7109375 1.874750830564785  C 11.393229166666668 0.6249169435215962  14.322916666666668 0  17.5 0  C 20.677083333333332 0  23.606770833333336 0.6249169435215962  26.2890625 1.874750830564785  C 28.97135416666667 3.1245847176079735  31.09375 4.82757475083056  32.65625 6.983720930232558  Z " fill-rule="nonzero" fill="rgba(0, 77, 141, 1)" stroke="none" transform="matrix(1 0 0 1 309 90 )" class="fill" />
    <path d="M 11.767578125 16.017607973421924  C 12.255859375 15.469435215946842  12.5 14.807973421926908  12.5 14.033222591362126  C 12.5 13.258471760797342  12.255859375 12.597009966777406  11.767578125 12.048837209302324  C 11.279296875 11.500664451827241  10.690104166666666 11.2265780730897  10 11.2265780730897  C 9.309895833333334 11.2265780730897  8.720703125 11.500664451827241  8.232421875 12.048837209302324  C 7.744140625 12.597009966777406  7.5 13.258471760797342  7.5 14.033222591362126  C 7.5 14.807973421926908  7.744140625 15.469435215946842  8.232421875 16.017607973421924  C 8.720703125 16.565780730897007  9.309895833333334 16.839867109634554  10 16.839867109634554  C 10.690104166666666 16.839867109634554  11.279296875 16.565780730897007  11.767578125 16.017607973421924  Z " stroke-width="0" stroke-dasharray="0" stroke="rgba(255, 255, 255, 0)" fill="none" transform="matrix(1 0 0 1 309 90 )" class="stroke" mask="url(#Clip34)" />
    <path d="M 19.267578125 16.017607973421924  C 19.755859375 15.469435215946842  20 14.807973421926908  20 14.033222591362126  C 20 13.258471760797342  19.755859375 12.597009966777406  19.267578125 12.048837209302324  C 18.779296875 11.500664451827241  18.190104166666668 11.2265780730897  17.5 11.2265780730897  C 16.809895833333336 11.2265780730897  16.220703125 11.500664451827241  15.732421875 12.048837209302324  C 15.244140625 12.597009966777406  15 13.258471760797342  15 14.033222591362126  C 15 14.807973421926908  15.244140625 15.469435215946842  15.732421875 16.017607973421924  C 16.220703125 16.565780730897007  16.809895833333336 16.839867109634554  17.5 16.839867109634554  C 18.190104166666668 16.839867109634554  18.779296875 16.565780730897007  19.267578125 16.017607973421924  Z " stroke-width="0" stroke-dasharray="0" stroke="rgba(255, 255, 255, 0)" fill="none" transform="matrix(1 0 0 1 309 90 )" class="stroke" mask="url(#Clip34)" />
    <path d="M 26.767578125 16.017607973421924  C 27.255859375 15.469435215946842  27.5 14.807973421926908  27.5 14.033222591362126  C 27.5 13.258471760797342  27.255859375 12.597009966777406  26.767578125 12.048837209302324  C 26.279296875 11.500664451827241  25.69010416666667 11.2265780730897  25 11.2265780730897  C 24.309895833333336 11.2265780730897  23.720703125 11.500664451827241  23.232421875 12.048837209302324  C 22.744140625 12.597009966777406  22.5 13.258471760797342  22.5 14.033222591362126  C 22.5 14.807973421926908  22.744140625 15.469435215946842  23.232421875 16.017607973421924  C 23.720703125 16.565780730897007  24.309895833333336 16.839867109634554  25 16.839867109634554  C 25.69010416666667 16.839867109634554  26.279296875 16.565780730897007  26.767578125 16.017607973421924  Z " stroke-width="0" stroke-dasharray="0" stroke="rgba(255, 255, 255, 0)" fill="none" transform="matrix(1 0 0 1 309 90 )" class="stroke" mask="url(#Clip34)" />
    <path d="M 32.65625 6.983720930232558  C 34.21875 9.139867109634551  35 11.48970099667774  35 14.033222591362126  C 35 16.576744186046515  34.21875 18.926578073089697  32.65625 21.082724252491694  C 31.09375 23.238870431893687  28.97135416666667 24.941860465116278  26.2890625 26.19169435215947  C 23.606770833333336 27.441528239202658  20.677083333333332 28.06644518272425  17.5 28.06644518272425  C 16.067708333333336 28.06644518272425  14.69401041666667 27.934883720930234  13.37890625 27.67176079734219  C 11.126302083333336 30.20066445182724  8.294270833333334 31.874418604651165  4.8828125 32.693023255813955  C 4.205729166666667 32.83920265780731  3.6458333333333335 32.93421926910299  3.203125 32.978073089701  C 3.046875 32.992691029900335  2.903645833333334 32.948837209302326  2.7734375 32.84651162790698  C 2.643229166666667 32.74418604651163  2.55859375 32.61262458471761  2.51953125 32.451827242524914  C 2.4674479166666665 32.23255813953488  2.59765625 31.962126245847177  2.91015625 31.640531561461795  C 2.975260416666667 31.567441860465117  3.1282552083333335 31.410299003322258  3.369140625 31.169102990033224  C 3.6100260416666665 30.927906976744186  3.776041666666667 30.756146179401995  3.8671875 30.653820598006646  C 3.958333333333334 30.551495016611295  4.111328125 30.365116279069763  4.326171875 30.09468438538206  C 4.541015625 29.824252491694352  4.697265625 29.594019933554822  4.794921875 29.403986710963455  C 4.892578125 29.21395348837209  5.026041666666667 28.943521594684384  5.1953125 28.592691029900333  C 5.364583333333334 28.24186046511628  5.494791666666668 27.891029900332224  5.5859375 27.540199335548174  C 5.677083333333334 27.189368770764123  5.771484375 26.769102990033222  5.869140625 26.27940199335548  C 5.966796875 25.78970099667774  6.048177083333334 25.259800664451827  6.11328125 24.68970099667774  C 4.212239583333334 23.374086378737545  2.7180989583333335 21.791694352159464  1.630859375 19.94252491694352  C 0.5436197916666666 18.09335548172757  0 16.12358803986711  0 14.033222591362126  C 0 11.48970099667774  0.78125 9.139867109634551  2.34375 6.983720930232558  C 3.906250000000001 4.82757475083056  6.028645833333333 3.1245847176079735  8.7109375 1.874750830564785  C 11.393229166666668 0.6249169435215962  14.322916666666668 0  17.5 0  C 20.677083333333332 0  23.606770833333336 0.6249169435215962  26.2890625 1.874750830564785  C 28.97135416666667 3.1245847176079735  31.09375 4.82757475083056  32.65625 6.983720930232558  Z " stroke-width="0" stroke-dasharray="0" stroke="rgba(255, 255, 255, 0)" fill="none" transform="matrix(1 0 0 1 309 90 )" class="stroke" mask="url(#Clip34)" />
  </g>
</svg>