<?xml version="1.0" encoding="utf-8"?>
<svg version="1.1" xmlns:xlink="http://www.w3.org/1999/xlink" width="44px" height="77px" xmlns="http://www.w3.org/2000/svg">
  <defs>
    <pattern id="BGPattern" patternUnits="userSpaceOnUse" alignment="0 0" imageRepeat="None" />
    <mask fill="white" id="Clip180">
      <path d="M 41.59375 23.450000000000003  C 43.19791666666667 25.08333333333333  44 27.066666666666663  44 29.400000000000002  L 44 47.6  C 44 48.766666666666666  43.598958333333336 49.75833333333333  42.796875 50.574999999999996  C 41.99479166666667 51.39166666666666  41.020833333333336 51.8  39.875 51.8  C 38.72916666666667 51.8  37.755208333333336 51.39166666666666  36.953125 50.574999999999996  C 36.15104166666667 49.75833333333333  35.75 48.766666666666666  35 47.6  L 35 32.2  L 33 32.2  L 33 72.10000000000001  C 33 73.44166666666668  32.52734375 74.59375  31.58203125 75.55624999999999  C 30.63671875 76.51875  29.505208333333336 77  28.1875 77  C 26.869791666666668 77  25.73828125 76.51875  24.79296875 75.55624999999999  C 23.84765625 74.59375  23.375 73.44166666666668  23 72.10000000000001  L 23 51.8  L 21 51.8  L 21 72.10000000000001  C 20.625000000000004 73.44166666666668  20.152343750000004 74.59375  19.20703125 75.55624999999999  C 18.261718750000004 76.51875  17.130208333333336 77  15.8125 77  C 14.494791666666668 77  13.36328125 76.51875  12.41796875 75.55624999999999  C 11.47265625 74.59375  11 73.44166666666668  11 72.10000000000001  L 11 32.2  L 9 32.2  L 9 47.6  C 8.25 48.766666666666666  7.848958333333333 49.75833333333333  7.046875 50.574999999999996  C 6.244791666666667 51.39166666666666  5.270833333333334 51.8  4.125 51.8  C 2.979166666666667 51.8  2.0052083333333335 51.39166666666666  1.203125 50.574999999999996  C 0.40104166666666663 49.75833333333333  0 48.766666666666666  0 47.6  L 0 29.400000000000002  C 0 27.066666666666663  0.8020833333333333 25.08333333333333  2.40625 23.450000000000003  C 4.010416666666667 21.816666666666656  5.958333333333334 21  8.25 21  L 35.75 21  C 38.04166666666667 21  39.989583333333336 21.816666666666656  41.59375 23.450000000000003  Z M 28.810546875 2.865625000000001  C 30.686848958333336 4.776041666666657  31.625 7.0874999999999995  31.625 9.800000000000002  C 31.625 12.512499999999998  30.686848958333336 14.823958333333332  28.810546875 16.734374999999996  C 26.934244791666668 18.644791666666663  24.6640625 19.599999999999998  22 19.599999999999998  C 19.3359375 19.599999999999998  17.065755208333336 18.644791666666663  15.189453125 16.734374999999996  C 13.313151041666668 14.823958333333332  12.375 12.512499999999998  12.375 9.800000000000002  C 12.375 7.0874999999999995  13.313151041666668 4.776041666666657  15.189453125 2.865625000000001  C 17.065755208333336 0.955208333333328  19.3359375 0  22 0  C 24.6640625 0  26.934244791666668 0.955208333333328  28.810546875 2.865625000000001  Z " fill-rule="evenodd" />
    </mask>
  </defs>
  <g transform="matrix(1 0 0 1 -68 -52 )">
    <path d="M 41.59375 23.450000000000003  C 43.19791666666667 25.08333333333333  44 27.066666666666663  44 29.400000000000002  L 44 47.6  C 44 48.766666666666666  43.598958333333336 49.75833333333333  42.796875 50.574999999999996  C 41.99479166666667 51.39166666666666  41.020833333333336 51.8  39.875 51.8  C 38.72916666666667 51.8  37.755208333333336 51.39166666666666  36.953125 50.574999999999996  C 36.15104166666667 49.75833333333333  35.75 48.766666666666666  35 47.6  L 35 32.2  L 33 32.2  L 33 72.10000000000001  C 33 73.44166666666668  32.52734375 74.59375  31.58203125 75.55624999999999  C 30.63671875 76.51875  29.505208333333336 77  28.1875 77  C 26.869791666666668 77  25.73828125 76.51875  24.79296875 75.55624999999999  C 23.84765625 74.59375  23.375 73.44166666666668  23 72.10000000000001  L 23 51.8  L 21 51.8  L 21 72.10000000000001  C 20.625000000000004 73.44166666666668  20.152343750000004 74.59375  19.20703125 75.55624999999999  C 18.261718750000004 76.51875  17.130208333333336 77  15.8125 77  C 14.494791666666668 77  13.36328125 76.51875  12.41796875 75.55624999999999  C 11.47265625 74.59375  11 73.44166666666668  11 72.10000000000001  L 11 32.2  L 9 32.2  L 9 47.6  C 8.25 48.766666666666666  7.848958333333333 49.75833333333333  7.046875 50.574999999999996  C 6.244791666666667 51.39166666666666  5.270833333333334 51.8  4.125 51.8  C 2.979166666666667 51.8  2.0052083333333335 51.39166666666666  1.203125 50.574999999999996  C 0.40104166666666663 49.75833333333333  0 48.766666666666666  0 47.6  L 0 29.400000000000002  C 0 27.066666666666663  0.8020833333333333 25.08333333333333  2.40625 23.450000000000003  C 4.010416666666667 21.816666666666656  5.958333333333334 21  8.25 21  L 35.75 21  C 38.04166666666667 21  39.989583333333336 21.816666666666656  41.59375 23.450000000000003  Z M 28.810546875 2.865625000000001  C 30.686848958333336 4.776041666666657  31.625 7.0874999999999995  31.625 9.800000000000002  C 31.625 12.512499999999998  30.686848958333336 14.823958333333332  28.810546875 16.734374999999996  C 26.934244791666668 18.644791666666663  24.6640625 19.599999999999998  22 19.599999999999998  C 19.3359375 19.599999999999998  17.065755208333336 18.644791666666663  15.189453125 16.734374999999996  C 13.313151041666668 14.823958333333332  12.375 12.512499999999998  12.375 9.800000000000002  C 12.375 7.0874999999999995  13.313151041666668 4.776041666666657  15.189453125 2.865625000000001  C 17.065755208333336 0.955208333333328  19.3359375 0  22 0  C 24.6640625 0  26.934244791666668 0.955208333333328  28.810546875 2.865625000000001  Z " fill-rule="nonzero" fill="rgba(0, 140, 255, 1)" stroke="none" transform="matrix(1 0 0 1 68 52 )" class="fill" />
    <path d="M 41.59375 23.450000000000003  C 43.19791666666667 25.08333333333333  44 27.066666666666663  44 29.400000000000002  L 44 47.6  C 44 48.766666666666666  43.598958333333336 49.75833333333333  42.796875 50.574999999999996  C 41.99479166666667 51.39166666666666  41.020833333333336 51.8  39.875 51.8  C 38.72916666666667 51.8  37.755208333333336 51.39166666666666  36.953125 50.574999999999996  C 36.15104166666667 49.75833333333333  35.75 48.766666666666666  35 47.6  L 35 32.2  L 33 32.2  L 33 72.10000000000001  C 33 73.44166666666668  32.52734375 74.59375  31.58203125 75.55624999999999  C 30.63671875 76.51875  29.505208333333336 77  28.1875 77  C 26.869791666666668 77  25.73828125 76.51875  24.79296875 75.55624999999999  C 23.84765625 74.59375  23.375 73.44166666666668  23 72.10000000000001  L 23 51.8  L 21 51.8  L 21 72.10000000000001  C 20.625000000000004 73.44166666666668  20.152343750000004 74.59375  19.20703125 75.55624999999999  C 18.261718750000004 76.51875  17.130208333333336 77  15.8125 77  C 14.494791666666668 77  13.36328125 76.51875  12.41796875 75.55624999999999  C 11.47265625 74.59375  11 73.44166666666668  11 72.10000000000001  L 11 32.2  L 9 32.2  L 9 47.6  C 8.25 48.766666666666666  7.848958333333333 49.75833333333333  7.046875 50.574999999999996  C 6.244791666666667 51.39166666666666  5.270833333333334 51.8  4.125 51.8  C 2.979166666666667 51.8  2.0052083333333335 51.39166666666666  1.203125 50.574999999999996  C 0.40104166666666663 49.75833333333333  0 48.766666666666666  0 47.6  L 0 29.400000000000002  C 0 27.066666666666663  0.8020833333333333 25.08333333333333  2.40625 23.450000000000003  C 4.010416666666667 21.816666666666656  5.958333333333334 21  8.25 21  L 35.75 21  C 38.04166666666667 21  39.989583333333336 21.816666666666656  41.59375 23.450000000000003  Z " stroke-width="0" stroke-dasharray="0" stroke="rgba(255, 255, 255, 0)" fill="none" transform="matrix(1 0 0 1 68 52 )" class="stroke" mask="url(#Clip180)" />
    <path d="M 28.810546875 2.865625000000001  C 30.686848958333336 4.776041666666657  31.625 7.0874999999999995  31.625 9.800000000000002  C 31.625 12.512499999999998  30.686848958333336 14.823958333333332  28.810546875 16.734374999999996  C 26.934244791666668 18.644791666666663  24.6640625 19.599999999999998  22 19.599999999999998  C 19.3359375 19.599999999999998  17.065755208333336 18.644791666666663  15.189453125 16.734374999999996  C 13.313151041666668 14.823958333333332  12.375 12.512499999999998  12.375 9.800000000000002  C 12.375 7.0874999999999995  13.313151041666668 4.776041666666657  15.189453125 2.865625000000001  C 17.065755208333336 0.955208333333328  19.3359375 0  22 0  C 24.6640625 0  26.934244791666668 0.955208333333328  28.810546875 2.865625000000001  Z " stroke-width="0" stroke-dasharray="0" stroke="rgba(255, 255, 255, 0)" fill="none" transform="matrix(1 0 0 1 68 52 )" class="stroke" mask="url(#Clip180)" />
  </g>
</svg>