<?xml version="1.0" encoding="utf-8"?>
<svg version="1.1" xmlns:xlink="http://www.w3.org/1999/xlink" width="16px" height="6px" xmlns="http://www.w3.org/2000/svg">
  <defs>
    <pattern id="BGPattern" patternUnits="userSpaceOnUse" alignment="0 0" imageRepeat="None" />
    <mask fill="white" id="Clip182">
      <path d="M 15.907407407407407 2.801040312093628  C 15.969135802469138 2.8530559167750322  16.000000000000004 2.912873862158647  16 2.9804941482444733  C 16.000000000000004 3.053315994798439  15.969135802469138 3.115734720416124  15.907407407407407 3.167750325097529  L 12.351851851851851 5.929778933680104  C 12.253086419753087 6.002600780234069  12.145061728395062 6.018205461638491  12.027777777777779 5.976592977893368  C 11.910493827160495 5.929778933680104  11.851851851851851 5.8543563068920665  11.851851851851851 5.7503250975292595  L 11.851851851851851 4  L 0.2962962962962963 4  C 0.20987654320987656 4.00260078023407  0.1388888888888889 3.9791937581274386  0.08333333333333333 3.932379713914174  C 0.027777777777777776 3.8855656697009104  0 3.8257477243172944  0 3.7529258777633285  L 0 2.2548764629388813  C 0 2.1820546163849155  0.027777777777777776 2.1222366710013003  0.08333333333333333 2.0754226267880362  C 0.1388888888888889 2.0286085825747726  0.20987654320987656 2.0052015604681404  0.2962962962962963 2  L 11.851851851851851 2  L 11.851851851851851 0.2574772431729522  C 11.851851851851851 0.14824447334200275  11.910493827160495 0.07282184655396584  12.027777777777779 0.03120936280884279  C 12.145061728395062 -0.010403120936281596  12.253086419753087 0.002600780234069733  12.351851851851851 0.07022106631989611  L 15.907407407407407 2.801040312093628  Z " fill-rule="evenodd" />
    </mask>
  </defs>
  <g transform="matrix(1 0 0 1 -233 -139 )">
    <path d="M 15.907407407407407 2.801040312093628  C 15.969135802469138 2.8530559167750322  16.000000000000004 2.912873862158647  16 2.9804941482444733  C 16.000000000000004 3.053315994798439  15.969135802469138 3.115734720416124  15.907407407407407 3.167750325097529  L 12.351851851851851 5.929778933680104  C 12.253086419753087 6.002600780234069  12.145061728395062 6.018205461638491  12.027777777777779 5.976592977893368  C 11.910493827160495 5.929778933680104  11.851851851851851 5.8543563068920665  11.851851851851851 5.7503250975292595  L 11.851851851851851 4  L 0.2962962962962963 4  C 0.20987654320987656 4.00260078023407  0.1388888888888889 3.9791937581274386  0.08333333333333333 3.932379713914174  C 0.027777777777777776 3.8855656697009104  0 3.8257477243172944  0 3.7529258777633285  L 0 2.2548764629388813  C 0 2.1820546163849155  0.027777777777777776 2.1222366710013003  0.08333333333333333 2.0754226267880362  C 0.1388888888888889 2.0286085825747726  0.20987654320987656 2.0052015604681404  0.2962962962962963 2  L 11.851851851851851 2  L 11.851851851851851 0.2574772431729522  C 11.851851851851851 0.14824447334200275  11.910493827160495 0.07282184655396584  12.027777777777779 0.03120936280884279  C 12.145061728395062 -0.010403120936281596  12.253086419753087 0.002600780234069733  12.351851851851851 0.07022106631989611  L 15.907407407407407 2.801040312093628  Z " fill-rule="nonzero" fill="rgba(0, 140, 255, 1)" stroke="none" transform="matrix(1 0 0 1 233 139 )" class="fill" />
    <path d="M 15.907407407407407 2.801040312093628  C 15.969135802469138 2.8530559167750322  16.000000000000004 2.912873862158647  16 2.9804941482444733  C 16.000000000000004 3.053315994798439  15.969135802469138 3.115734720416124  15.907407407407407 3.167750325097529  L 12.351851851851851 5.929778933680104  C 12.253086419753087 6.002600780234069  12.145061728395062 6.018205461638491  12.027777777777779 5.976592977893368  C 11.910493827160495 5.929778933680104  11.851851851851851 5.8543563068920665  11.851851851851851 5.7503250975292595  L 11.851851851851851 4  L 0.2962962962962963 4  C 0.20987654320987656 4.00260078023407  0.1388888888888889 3.9791937581274386  0.08333333333333333 3.932379713914174  C 0.027777777777777776 3.8855656697009104  0 3.8257477243172944  0 3.7529258777633285  L 0 2.2548764629388813  C 0 2.1820546163849155  0.027777777777777776 2.1222366710013003  0.08333333333333333 2.0754226267880362  C 0.1388888888888889 2.0286085825747726  0.20987654320987656 2.0052015604681404  0.2962962962962963 2  L 11.851851851851851 2  L 11.851851851851851 0.2574772431729522  C 11.851851851851851 0.14824447334200275  11.910493827160495 0.07282184655396584  12.027777777777779 0.03120936280884279  C 12.145061728395062 -0.010403120936281596  12.253086419753087 0.002600780234069733  12.351851851851851 0.07022106631989611  L 15.907407407407407 2.801040312093628  Z " stroke-width="0" stroke-dasharray="0" stroke="rgba(255, 255, 255, 0)" fill="none" transform="matrix(1 0 0 1 233 139 )" class="stroke" mask="url(#Clip182)" />
  </g>
</svg>