<?xml version="1.0" encoding="utf-8"?>
<svg version="1.1" xmlns:xlink="http://www.w3.org/1999/xlink" width="24px" height="30px" xmlns="http://www.w3.org/2000/svg">
  <defs>
    <pattern id="BGPattern" patternUnits="userSpaceOnUse" alignment="0 0" imageRepeat="None" />
    <mask fill="white" id="Clip6">
      <path d="M 23.840625000000003 21.689453124999996  C 23.946875 22.672526041666664  24 23.717447916666668  24 24.82421875  C 24 26.243489583333336  23.609375 27.4609375  22.828125 28.4765625  C 22.046875 29.4921875  21.106250000000003 30  20.00625 30  L 3.9937500000000004 30  C 2.89375 30  1.9531250000000002 29.4921875  1.1718750000000002 28.4765625  C 0.3906250000000001 27.4609375  0 26.243489583333336  0 24.82421875  C 0 23.717447916666668  0.053125000000000124 22.672526041666664  0.15937500000000016 21.689453124999996  C 0.2656250000000001 20.70638020833333  0.46250000000000013 19.716796875  0.7500000000000002 18.720703125  C 1.0375000000000003 17.724609375  1.4031250000000002 16.871744791666668  1.8468749999999998 16.162109375000004  C 2.2906250000000004 15.45247395833333  2.878125 14.873046874999998  3.609375 14.423828125000002  C 4.340624999999999 13.974609375  5.18125 13.750000000000002  6.1312500000000005 13.750000000000002  C 7.768750000000001 15.416666666666664  9.725000000000001 16.250000000000004  12 16.250000000000004  C 14.275000000000004 16.250000000000004  16.231250000000003 15.416666666666664  17.86875 13.750000000000002  C 18.81875 13.750000000000002  19.659374999999997 13.974609375  20.390625 14.423828125000002  C 21.121875000000003 14.873046874999998  21.709375 15.45247395833333  22.153125000000003 16.162109375000004  C 22.596875000000004 16.871744791666668  22.9625 17.724609375  23.25 18.720703125  C 23.5375 19.716796875  23.734375 20.70638020833333  23.840625000000003 21.689453124999996  Z M 17.090625000000003 2.197265625  C 18.496875000000003 3.662109375  19.200000000000003 5.429687500000001  19.200000000000003 7.5  C 19.200000000000003 9.570312499999998  18.496875000000003 11.337890625  17.090625000000003 12.802734375  C 15.684375000000001 14.267578125  13.987499999999999 15  12 15  C 10.0125 15  8.315625 14.267578125  6.909375000000001 12.802734375  C 5.503125000000001 11.337890625  4.800000000000001 9.570312499999998  4.800000000000001 7.5  C 4.800000000000001 5.429687500000001  5.503125000000001 3.662109375  6.909375000000001 2.197265625  C 8.315625 0.732421875  10.0125 0  12 0  C 13.987499999999999 0  15.684375000000001 0.732421875  17.090625000000003 2.197265625  Z " fill-rule="evenodd" />
    </mask>
  </defs>
  <g transform="matrix(1 0 0 1 -263 -65 )">
    <path d="M 23.840625000000003 21.689453124999996  C 23.946875 22.672526041666664  24 23.717447916666668  24 24.82421875  C 24 26.243489583333336  23.609375 27.4609375  22.828125 28.4765625  C 22.046875 29.4921875  21.106250000000003 30  20.00625 30  L 3.9937500000000004 30  C 2.89375 30  1.9531250000000002 29.4921875  1.1718750000000002 28.4765625  C 0.3906250000000001 27.4609375  0 26.243489583333336  0 24.82421875  C 0 23.717447916666668  0.053125000000000124 22.672526041666664  0.15937500000000016 21.689453124999996  C 0.2656250000000001 20.70638020833333  0.46250000000000013 19.716796875  0.7500000000000002 18.720703125  C 1.0375000000000003 17.724609375  1.4031250000000002 16.871744791666668  1.8468749999999998 16.162109375000004  C 2.2906250000000004 15.45247395833333  2.878125 14.873046874999998  3.609375 14.423828125000002  C 4.340624999999999 13.974609375  5.18125 13.750000000000002  6.1312500000000005 13.750000000000002  C 7.768750000000001 15.416666666666664  9.725000000000001 16.250000000000004  12 16.250000000000004  C 14.275000000000004 16.250000000000004  16.231250000000003 15.416666666666664  17.86875 13.750000000000002  C 18.81875 13.750000000000002  19.659374999999997 13.974609375  20.390625 14.423828125000002  C 21.121875000000003 14.873046874999998  21.709375 15.45247395833333  22.153125000000003 16.162109375000004  C 22.596875000000004 16.871744791666668  22.9625 17.724609375  23.25 18.720703125  C 23.5375 19.716796875  23.734375 20.70638020833333  23.840625000000003 21.689453124999996  Z M 17.090625000000003 2.197265625  C 18.496875000000003 3.662109375  19.200000000000003 5.429687500000001  19.200000000000003 7.5  C 19.200000000000003 9.570312499999998  18.496875000000003 11.337890625  17.090625000000003 12.802734375  C 15.684375000000001 14.267578125  13.987499999999999 15  12 15  C 10.0125 15  8.315625 14.267578125  6.909375000000001 12.802734375  C 5.503125000000001 11.337890625  4.800000000000001 9.570312499999998  4.800000000000001 7.5  C 4.800000000000001 5.429687500000001  5.503125000000001 3.662109375  6.909375000000001 2.197265625  C 8.315625 0.732421875  10.0125 0  12 0  C 13.987499999999999 0  15.684375000000001 0.732421875  17.090625000000003 2.197265625  Z " fill-rule="nonzero" fill="rgba(0, 77, 141, 1)" stroke="none" transform="matrix(1 0 0 1 263 65 )" class="fill" />
    <path d="M 23.840625000000003 21.689453124999996  C 23.946875 22.672526041666664  24 23.717447916666668  24 24.82421875  C 24 26.243489583333336  23.609375 27.4609375  22.828125 28.4765625  C 22.046875 29.4921875  21.106250000000003 30  20.00625 30  L 3.9937500000000004 30  C 2.89375 30  1.9531250000000002 29.4921875  1.1718750000000002 28.4765625  C 0.3906250000000001 27.4609375  0 26.243489583333336  0 24.82421875  C 0 23.717447916666668  0.053125000000000124 22.672526041666664  0.15937500000000016 21.689453124999996  C 0.2656250000000001 20.70638020833333  0.46250000000000013 19.716796875  0.7500000000000002 18.720703125  C 1.0375000000000003 17.724609375  1.4031250000000002 16.871744791666668  1.8468749999999998 16.162109375000004  C 2.2906250000000004 15.45247395833333  2.878125 14.873046874999998  3.609375 14.423828125000002  C 4.340624999999999 13.974609375  5.18125 13.750000000000002  6.1312500000000005 13.750000000000002  C 7.768750000000001 15.416666666666664  9.725000000000001 16.250000000000004  12 16.250000000000004  C 14.275000000000004 16.250000000000004  16.231250000000003 15.416666666666664  17.86875 13.750000000000002  C 18.81875 13.750000000000002  19.659374999999997 13.974609375  20.390625 14.423828125000002  C 21.121875000000003 14.873046874999998  21.709375 15.45247395833333  22.153125000000003 16.162109375000004  C 22.596875000000004 16.871744791666668  22.9625 17.724609375  23.25 18.720703125  C 23.5375 19.716796875  23.734375 20.70638020833333  23.840625000000003 21.689453124999996  Z " stroke-width="0" stroke-dasharray="0" stroke="rgba(255, 255, 255, 0)" fill="none" transform="matrix(1 0 0 1 263 65 )" class="stroke" mask="url(#Clip6)" />
    <path d="M 17.090625000000003 2.197265625  C 18.496875000000003 3.662109375  19.200000000000003 5.429687500000001  19.200000000000003 7.5  C 19.200000000000003 9.570312499999998  18.496875000000003 11.337890625  17.090625000000003 12.802734375  C 15.684375000000001 14.267578125  13.987499999999999 15  12 15  C 10.0125 15  8.315625 14.267578125  6.909375000000001 12.802734375  C 5.503125000000001 11.337890625  4.800000000000001 9.570312499999998  4.800000000000001 7.5  C 4.800000000000001 5.429687500000001  5.503125000000001 3.662109375  6.909375000000001 2.197265625  C 8.315625 0.732421875  10.0125 0  12 0  C 13.987499999999999 0  15.684375000000001 0.732421875  17.090625000000003 2.197265625  Z " stroke-width="0" stroke-dasharray="0" stroke="rgba(255, 255, 255, 0)" fill="none" transform="matrix(1 0 0 1 263 65 )" class="stroke" mask="url(#Clip6)" />
  </g>
</svg>