<?xml version="1.0" encoding="utf-8"?>
<svg version="1.1" xmlns:xlink="http://www.w3.org/1999/xlink" width="84px" height="84px" xmlns="http://www.w3.org/2000/svg">
  <g transform="matrix(1 0 0 1 -21 -175 )">
    <path d="M 21 175  L 105 175  L 105 259  L 21 259  L 21 175  " fill-rule="nonzero" fill="rgba(204, 204, 204, 1)" stroke="none" class="fill" />
    <path d="M 27 181  L 99 181  L 99 253  L 27 253  L 27 181  " fill-rule="nonzero" fill="rgba(255, 255, 255, 1)" stroke="none" class="fill" />
    <path d="M 70.98 200.2  C 67.452 200.2  64.68 197.428  64.68 193.89999999999998  C 64.68 190.37199999999999  67.452 187.6  70.98 187.6  C 74.50800000000001 187.6  77.28 190.37199999999999  77.28 193.89999999999998  C 77.28 197.428  74.50800000000001 200.2  70.98 200.2  " fill-rule="nonzero" fill="rgba(204, 204, 204, 1)" stroke="none" class="fill" />
    <path d="M 29 251  L 29 213.6  L 46 196.6  L 69.8 210.2  L 83.4 206.8  L 97 210.2  L 97 251  L 29 251  " fill-rule="nonzero" fill="rgba(22, 155, 213, 1)" stroke="none" class="fill" />
    <path d="M 23 257  L 23 177  L 103 177  L 103 257  L 23 257  Z " stroke-width="4" stroke-dasharray="0" stroke="rgba(0, 140, 255, 1)" fill="none" class="stroke" />
  </g>
</svg>