<?xml version="1.0" encoding="utf-8"?>
<svg version="1.1" xmlns:xlink="http://www.w3.org/1999/xlink" width="29px" height="29px" xmlns="http://www.w3.org/2000/svg">
  <defs>
    <pattern id="BGPattern" patternUnits="userSpaceOnUse" alignment="0 0" imageRepeat="None" />
    <mask fill="white" id="Clip99">
      <path d="M 0 14.5  C 0 6.379999999999999  6.379999999999999 0  14.5 0  C 22.62 0  29 6.379999999999999  29 14.5  C 29 22.62  22.62 29  14.5 29  C 6.379999999999999 29  0 22.62  0 14.5  Z " fill-rule="evenodd" />
    </mask>
  </defs>
  <g transform="matrix(1 0 0 1 -258 -636 )">
    <path d="M 0 14.5  C 0 6.379999999999999  6.379999999999999 0  14.5 0  C 22.62 0  29 6.379999999999999  29 14.5  C 29 22.62  22.62 29  14.5 29  C 6.379999999999999 29  0 22.62  0 14.5  Z " fill-rule="nonzero" fill="rgba(255, 255, 255, 1)" stroke="none" transform="matrix(1 0 0 1 258 636 )" class="fill" />
    <path d="M 0 14.5  C 0 6.379999999999999  6.379999999999999 0  14.5 0  C 22.62 0  29 6.379999999999999  29 14.5  C 29 22.62  22.62 29  14.5 29  C 6.379999999999999 29  0 22.62  0 14.5  Z " stroke-width="6" stroke-dasharray="0" stroke="rgba(0, 77, 141, 1)" fill="none" transform="matrix(1 0 0 1 258 636 )" class="stroke" mask="url(#Clip99)" />
  </g>
</svg>