<?xml version="1.0" encoding="utf-8"?>
<svg version="1.1" xmlns:xlink="http://www.w3.org/1999/xlink" width="27px" height="25px" xmlns="http://www.w3.org/2000/svg">
  <defs>
    <pattern id="BGPattern" patternUnits="userSpaceOnUse" alignment="0 0" imageRepeat="None" />
    <mask fill="white" id="Clip107">
      <path d="M 26.091346153846153 8.963453056080656  C 26.697115384615387 9.057971014492756  27 9.29951690821256  27 9.688090737240076  C 27 9.91913463558076  26.859375000000004 10.171182524679686  26.578125 10.444234404536862  L 20.688100961538463 16.020793950850663  L 22.083533653846153 23.897290485192187  C 22.094350961538463 23.970804452846043  22.099759615384617 24.07582440663726  22.099759615384617 24.21235034656585  C 22.099759615384617 24.43289224952741  22.04296875 24.619302667506826  21.92938701923077 24.771581600504096  C 21.815805288461537 24.923860533501365  21.650841346153847 25  21.434495192307693 25  C 21.228966346153847 25  21.012620192307693 24.936988027725267  20.78545673076923 24.810964083175804  L 13.5 21.093257718966605  L 6.214543269230769 24.810964083175804  C 5.976562500000001 24.936988027725267  5.760216346153846 25  5.5655048076923075 25  C 5.338341346153846 25  5.16796875 24.923860533501365  5.054387019230769 24.771581600504096  C 4.940805288461538 24.619302667506826  4.884014423076923 24.43289224952741  4.884014423076923 24.21235034656585  C 4.884014423076923 24.149338374291116  4.894831730769232 24.044318420499895  4.916466346153846 23.897290485192187  L 6.311899038461538 16.020793950850663  L 0.4056490384615385 10.444234404536862  C 0.13521634615384615 10.160680529300567  0 9.90863264020164  0 9.688090737240076  C 0 9.29951690821256  0.30288461538461536 9.057971014492756  0.9086538461538461 8.963453056080656  L 9.054086538461538 7.813484562066791  L 12.704927884615385 0.6458727158160038  C 12.910456730769232 0.21529090527200034  13.175480769230768 0  13.5 0  C 13.82451923076923 0  14.08954326923077 0.21529090527200034  14.295072115384617 0.6458727158160038  L 17.945913461538463 7.813484562066791  L 26.091346153846153 8.963453056080656  Z " fill-rule="evenodd" />
    </mask>
  </defs>
  <g transform="matrix(1 0 0 1 -185 -101 )">
    <path d="M 26.091346153846153 8.963453056080656  C 26.697115384615387 9.057971014492756  27 9.29951690821256  27 9.688090737240076  C 27 9.91913463558076  26.859375000000004 10.171182524679686  26.578125 10.444234404536862  L 20.688100961538463 16.020793950850663  L 22.083533653846153 23.897290485192187  C 22.094350961538463 23.970804452846043  22.099759615384617 24.07582440663726  22.099759615384617 24.21235034656585  C 22.099759615384617 24.43289224952741  22.04296875 24.619302667506826  21.92938701923077 24.771581600504096  C 21.815805288461537 24.923860533501365  21.650841346153847 25  21.434495192307693 25  C 21.228966346153847 25  21.012620192307693 24.936988027725267  20.78545673076923 24.810964083175804  L 13.5 21.093257718966605  L 6.214543269230769 24.810964083175804  C 5.976562500000001 24.936988027725267  5.760216346153846 25  5.5655048076923075 25  C 5.338341346153846 25  5.16796875 24.923860533501365  5.054387019230769 24.771581600504096  C 4.940805288461538 24.619302667506826  4.884014423076923 24.43289224952741  4.884014423076923 24.21235034656585  C 4.884014423076923 24.149338374291116  4.894831730769232 24.044318420499895  4.916466346153846 23.897290485192187  L 6.311899038461538 16.020793950850663  L 0.4056490384615385 10.444234404536862  C 0.13521634615384615 10.160680529300567  0 9.90863264020164  0 9.688090737240076  C 0 9.29951690821256  0.30288461538461536 9.057971014492756  0.9086538461538461 8.963453056080656  L 9.054086538461538 7.813484562066791  L 12.704927884615385 0.6458727158160038  C 12.910456730769232 0.21529090527200034  13.175480769230768 0  13.5 0  C 13.82451923076923 0  14.08954326923077 0.21529090527200034  14.295072115384617 0.6458727158160038  L 17.945913461538463 7.813484562066791  L 26.091346153846153 8.963453056080656  Z " fill-rule="nonzero" fill="rgba(0, 77, 141, 1)" stroke="none" transform="matrix(1 0 0 1 185 101 )" class="fill" />
    <path d="M 26.091346153846153 8.963453056080656  C 26.697115384615387 9.057971014492756  27 9.29951690821256  27 9.688090737240076  C 27 9.91913463558076  26.859375000000004 10.171182524679686  26.578125 10.444234404536862  L 20.688100961538463 16.020793950850663  L 22.083533653846153 23.897290485192187  C 22.094350961538463 23.970804452846043  22.099759615384617 24.07582440663726  22.099759615384617 24.21235034656585  C 22.099759615384617 24.43289224952741  22.04296875 24.619302667506826  21.92938701923077 24.771581600504096  C 21.815805288461537 24.923860533501365  21.650841346153847 25  21.434495192307693 25  C 21.228966346153847 25  21.012620192307693 24.936988027725267  20.78545673076923 24.810964083175804  L 13.5 21.093257718966605  L 6.214543269230769 24.810964083175804  C 5.976562500000001 24.936988027725267  5.760216346153846 25  5.5655048076923075 25  C 5.338341346153846 25  5.16796875 24.923860533501365  5.054387019230769 24.771581600504096  C 4.940805288461538 24.619302667506826  4.884014423076923 24.43289224952741  4.884014423076923 24.21235034656585  C 4.884014423076923 24.149338374291116  4.894831730769232 24.044318420499895  4.916466346153846 23.897290485192187  L 6.311899038461538 16.020793950850663  L 0.4056490384615385 10.444234404536862  C 0.13521634615384615 10.160680529300567  0 9.90863264020164  0 9.688090737240076  C 0 9.29951690821256  0.30288461538461536 9.057971014492756  0.9086538461538461 8.963453056080656  L 9.054086538461538 7.813484562066791  L 12.704927884615385 0.6458727158160038  C 12.910456730769232 0.21529090527200034  13.175480769230768 0  13.5 0  C 13.82451923076923 0  14.08954326923077 0.21529090527200034  14.295072115384617 0.6458727158160038  L 17.945913461538463 7.813484562066791  L 26.091346153846153 8.963453056080656  Z " stroke-width="0" stroke-dasharray="0" stroke="rgba(255, 255, 255, 0)" fill="none" transform="matrix(1 0 0 1 185 101 )" class="stroke" mask="url(#Clip107)" />
  </g>
</svg>