<?xml version="1.0" encoding="utf-8"?>
<svg version="1.1" xmlns:xlink="http://www.w3.org/1999/xlink" width="33px" height="35px" xmlns="http://www.w3.org/2000/svg">
  <defs>
    <pattern id="BGPattern" patternUnits="userSpaceOnUse" alignment="0 0" imageRepeat="None" />
    <mask fill="white" id="Clip102">
      <path d="M 16.5 33.4375  C 16.711538461538463 33.4375  16.817307692307693 33.333333333333336  16.81730769230769 33.125  C 16.817307692307693 32.916666666666664  16.711538461538463 32.8125  16.5 32.8125  C 15.719951923076923 32.8125  15.048978365384619 32.535807291666664  14.487079326923077 31.982421875  C 13.92518028846154 31.429036458333332  13.644230769230768 30.768229166666664  13.644230769230768 30.000000000000004  C 13.644230769230768 29.791666666666664  13.53846153846154 29.6875  13.326923076923077 29.6875  C 13.115384615384617 29.6875  13.009615384615385 29.791666666666664  13.009615384615385 30.000000000000004  C 13.009615384615385 30.950520833333332  13.350060096153847 31.761067708333336  14.030949519230768 32.431640625  C 14.711838942307693 33.102213541666664  15.53485576923077 33.4375  16.5 33.4375  Z M 31.1953125 25.781249999999996  C 31.73737980769231 26.380208333333336  32.33894230769231 26.953125  33 27.5  C 33.00000000000001 28.177083333333336  32.74879807692308 28.763020833333336  32.24639423076923 29.2578125  C 31.743990384615387 29.752604166666664  31.149038461538463 30.000000000000004  30.461538461538463 30.000000000000004  L 21.576923076923077 30.000000000000004  C 21.576923076923077 31.380208333333336  21.08112980769231 32.55859375  20.08954326923077 33.53515625  C 19.09795673076923 34.51171875  17.90144230769231 35  16.5 35  C 15.098557692307693 35  13.902043269230768 34.51171875  12.910456730769232 33.53515625  C 11.918870192307693 32.55859375  11.423076923076923 31.380208333333336  11.423076923076923 30.000000000000004  L 2.5384615384615388 30.000000000000004  C 1.8509615384615388 30.000000000000004  1.2560096153846154 29.752604166666664  0.7536057692307692 29.2578125  C 0.2512019230769232 28.763020833333336  0 28.177083333333336  0 27.5  C 0.6610576923076925 26.953125  1.2626201923076927 26.380208333333336  1.8046875 25.781249999999996  C 2.346754807692308 25.182291666666664  2.9086538461538463 24.404296875  3.4903846153846154 23.447265625  C 4.072115384615385 22.490234375  4.564603365384616 21.458333333333332  4.9678485576923075 20.3515625  C 5.371093750000001 19.244791666666668  5.701622596153847 17.903645833333336  5.959435096153847 16.328125  C 6.217247596153847 14.752604166666666  6.346153846153847 13.059895833333329  6.346153846153847 11.249999999999998  C 6.346153846153847 9.270833333333332  7.119591346153847 7.431640625000001  8.666466346153845 5.732421874999998  C 10.213341346153845 4.033203125  12.242788461538462 3.001302083333331  14.754807692307693 2.636718749999999  C 14.649038461538463 2.3893229166666634  14.596153846153845 2.135416666666667  14.596153846153845 1.875000000000001  C 14.596153846153845 1.3541666666666656  14.78125 0.911458333333332  15.151442307692307 0.546875  C 15.521634615384617 0.18229166666666796  15.971153846153847 0  16.5 0  C 17.028846153846157 0  17.478365384615387 0.18229166666666796  17.84855769230769 0.546875  C 18.21875 0.911458333333332  18.403846153846153 1.3541666666666656  18.403846153846153 1.875000000000001  C 18.403846153846153 2.135416666666667  18.35096153846154 2.3893229166666634  18.24519230769231 2.636718749999999  C 20.75721153846154 3.001302083333331  22.786658653846153 4.033203125  24.333533653846153 5.732421874999998  C 25.880408653846153 7.431640625000001  26.653846153846153 9.270833333333332  26.653846153846153 11.249999999999998  C 26.653846153846153 13.059895833333329  26.782752403846153 14.752604166666666  27.040564903846153 16.328125  C 27.298377403846153 17.903645833333336  27.62890625 19.244791666666668  28.03215144230769 20.3515625  C 28.435396634615387 21.458333333333332  28.927884615384617 22.490234375  29.509615384615387 23.447265625  C 30.091346153846157 24.404296875  30.6532451923077 25.182291666666664  31.1953125 25.781249999999996  Z " fill-rule="evenodd" />
    </mask>
  </defs>
  <g transform="matrix(1 0 0 1 -346 -10 )">
    <path d="M 16.5 33.4375  C 16.711538461538463 33.4375  16.817307692307693 33.333333333333336  16.81730769230769 33.125  C 16.817307692307693 32.916666666666664  16.711538461538463 32.8125  16.5 32.8125  C 15.719951923076923 32.8125  15.048978365384619 32.535807291666664  14.487079326923077 31.982421875  C 13.92518028846154 31.429036458333332  13.644230769230768 30.768229166666664  13.644230769230768 30.000000000000004  C 13.644230769230768 29.791666666666664  13.53846153846154 29.6875  13.326923076923077 29.6875  C 13.115384615384617 29.6875  13.009615384615385 29.791666666666664  13.009615384615385 30.000000000000004  C 13.009615384615385 30.950520833333332  13.350060096153847 31.761067708333336  14.030949519230768 32.431640625  C 14.711838942307693 33.102213541666664  15.53485576923077 33.4375  16.5 33.4375  Z M 31.1953125 25.781249999999996  C 31.73737980769231 26.380208333333336  32.33894230769231 26.953125  33 27.5  C 33.00000000000001 28.177083333333336  32.74879807692308 28.763020833333336  32.24639423076923 29.2578125  C 31.743990384615387 29.752604166666664  31.149038461538463 30.000000000000004  30.461538461538463 30.000000000000004  L 21.576923076923077 30.000000000000004  C 21.576923076923077 31.380208333333336  21.08112980769231 32.55859375  20.08954326923077 33.53515625  C 19.09795673076923 34.51171875  17.90144230769231 35  16.5 35  C 15.098557692307693 35  13.902043269230768 34.51171875  12.910456730769232 33.53515625  C 11.918870192307693 32.55859375  11.423076923076923 31.380208333333336  11.423076923076923 30.000000000000004  L 2.5384615384615388 30.000000000000004  C 1.8509615384615388 30.000000000000004  1.2560096153846154 29.752604166666664  0.7536057692307692 29.2578125  C 0.2512019230769232 28.763020833333336  0 28.177083333333336  0 27.5  C 0.6610576923076925 26.953125  1.2626201923076927 26.380208333333336  1.8046875 25.781249999999996  C 2.346754807692308 25.182291666666664  2.9086538461538463 24.404296875  3.4903846153846154 23.447265625  C 4.072115384615385 22.490234375  4.564603365384616 21.458333333333332  4.9678485576923075 20.3515625  C 5.371093750000001 19.244791666666668  5.701622596153847 17.903645833333336  5.959435096153847 16.328125  C 6.217247596153847 14.752604166666666  6.346153846153847 13.059895833333329  6.346153846153847 11.249999999999998  C 6.346153846153847 9.270833333333332  7.119591346153847 7.431640625000001  8.666466346153845 5.732421874999998  C 10.213341346153845 4.033203125  12.242788461538462 3.001302083333331  14.754807692307693 2.636718749999999  C 14.649038461538463 2.3893229166666634  14.596153846153845 2.135416666666667  14.596153846153845 1.875000000000001  C 14.596153846153845 1.3541666666666656  14.78125 0.911458333333332  15.151442307692307 0.546875  C 15.521634615384617 0.18229166666666796  15.971153846153847 0  16.5 0  C 17.028846153846157 0  17.478365384615387 0.18229166666666796  17.84855769230769 0.546875  C 18.21875 0.911458333333332  18.403846153846153 1.3541666666666656  18.403846153846153 1.875000000000001  C 18.403846153846153 2.135416666666667  18.35096153846154 2.3893229166666634  18.24519230769231 2.636718749999999  C 20.75721153846154 3.001302083333331  22.786658653846153 4.033203125  24.333533653846153 5.732421874999998  C 25.880408653846153 7.431640625000001  26.653846153846153 9.270833333333332  26.653846153846153 11.249999999999998  C 26.653846153846153 13.059895833333329  26.782752403846153 14.752604166666666  27.040564903846153 16.328125  C 27.298377403846153 17.903645833333336  27.62890625 19.244791666666668  28.03215144230769 20.3515625  C 28.435396634615387 21.458333333333332  28.927884615384617 22.490234375  29.509615384615387 23.447265625  C 30.091346153846157 24.404296875  30.6532451923077 25.182291666666664  31.1953125 25.781249999999996  Z " fill-rule="nonzero" fill="rgba(0, 77, 141, 1)" stroke="none" transform="matrix(1 0 0 1 346 10 )" class="fill" />
    <path d="M 16.5 33.4375  C 16.711538461538463 33.4375  16.817307692307693 33.333333333333336  16.81730769230769 33.125  C 16.817307692307693 32.916666666666664  16.711538461538463 32.8125  16.5 32.8125  C 15.719951923076923 32.8125  15.048978365384619 32.535807291666664  14.487079326923077 31.982421875  C 13.92518028846154 31.429036458333332  13.644230769230768 30.768229166666664  13.644230769230768 30.000000000000004  C 13.644230769230768 29.791666666666664  13.53846153846154 29.6875  13.326923076923077 29.6875  C 13.115384615384617 29.6875  13.009615384615385 29.791666666666664  13.009615384615385 30.000000000000004  C 13.009615384615385 30.950520833333332  13.350060096153847 31.761067708333336  14.030949519230768 32.431640625  C 14.711838942307693 33.102213541666664  15.53485576923077 33.4375  16.5 33.4375  Z " stroke-width="0" stroke-dasharray="0" stroke="rgba(0, 0, 0, 1)" fill="none" transform="matrix(1 0 0 1 346 10 )" class="stroke" mask="url(#Clip102)" />
    <path d="M 31.1953125 25.781249999999996  C 31.73737980769231 26.380208333333336  32.33894230769231 26.953125  33 27.5  C 33.00000000000001 28.177083333333336  32.74879807692308 28.763020833333336  32.24639423076923 29.2578125  C 31.743990384615387 29.752604166666664  31.149038461538463 30.000000000000004  30.461538461538463 30.000000000000004  L 21.576923076923077 30.000000000000004  C 21.576923076923077 31.380208333333336  21.08112980769231 32.55859375  20.08954326923077 33.53515625  C 19.09795673076923 34.51171875  17.90144230769231 35  16.5 35  C 15.098557692307693 35  13.902043269230768 34.51171875  12.910456730769232 33.53515625  C 11.918870192307693 32.55859375  11.423076923076923 31.380208333333336  11.423076923076923 30.000000000000004  L 2.5384615384615388 30.000000000000004  C 1.8509615384615388 30.000000000000004  1.2560096153846154 29.752604166666664  0.7536057692307692 29.2578125  C 0.2512019230769232 28.763020833333336  0 28.177083333333336  0 27.5  C 0.6610576923076925 26.953125  1.2626201923076927 26.380208333333336  1.8046875 25.781249999999996  C 2.346754807692308 25.182291666666664  2.9086538461538463 24.404296875  3.4903846153846154 23.447265625  C 4.072115384615385 22.490234375  4.564603365384616 21.458333333333332  4.9678485576923075 20.3515625  C 5.371093750000001 19.244791666666668  5.701622596153847 17.903645833333336  5.959435096153847 16.328125  C 6.217247596153847 14.752604166666666  6.346153846153847 13.059895833333329  6.346153846153847 11.249999999999998  C 6.346153846153847 9.270833333333332  7.119591346153847 7.431640625000001  8.666466346153845 5.732421874999998  C 10.213341346153845 4.033203125  12.242788461538462 3.001302083333331  14.754807692307693 2.636718749999999  C 14.649038461538463 2.3893229166666634  14.596153846153845 2.135416666666667  14.596153846153845 1.875000000000001  C 14.596153846153845 1.3541666666666656  14.78125 0.911458333333332  15.151442307692307 0.546875  C 15.521634615384617 0.18229166666666796  15.971153846153847 0  16.5 0  C 17.028846153846157 0  17.478365384615387 0.18229166666666796  17.84855769230769 0.546875  C 18.21875 0.911458333333332  18.403846153846153 1.3541666666666656  18.403846153846153 1.875000000000001  C 18.403846153846153 2.135416666666667  18.35096153846154 2.3893229166666634  18.24519230769231 2.636718749999999  C 20.75721153846154 3.001302083333331  22.786658653846153 4.033203125  24.333533653846153 5.732421874999998  C 25.880408653846153 7.431640625000001  26.653846153846153 9.270833333333332  26.653846153846153 11.249999999999998  C 26.653846153846153 13.059895833333329  26.782752403846153 14.752604166666666  27.040564903846153 16.328125  C 27.298377403846153 17.903645833333336  27.62890625 19.244791666666668  28.03215144230769 20.3515625  C 28.435396634615387 21.458333333333332  28.927884615384617 22.490234375  29.509615384615387 23.447265625  C 30.091346153846157 24.404296875  30.6532451923077 25.182291666666664  31.1953125 25.781249999999996  Z " stroke-width="0" stroke-dasharray="0" stroke="rgba(0, 0, 0, 1)" fill="none" transform="matrix(1 0 0 1 346 10 )" class="stroke" mask="url(#Clip102)" />
  </g>
</svg>