<?xml version="1.0" encoding="utf-8"?>
<svg version="1.1" xmlns:xlink="http://www.w3.org/1999/xlink" width="35px" height="35px" xmlns="http://www.w3.org/2000/svg">
  <defs>
    <pattern id="BGPattern" patternUnits="userSpaceOnUse" alignment="0 0" imageRepeat="None" />
    <mask fill="white" id="Clip31">
      <path d="M 21.624348958333332 21.624348958333336  C 22.763671875 20.485026041666664  23.333333333333332 19.110243055555554  23.333333333333332 17.5  C 23.333333333333332 15.889756944444441  22.763671875 14.514973958333332  21.624348958333332 13.375651041666668  C 20.485026041666668 12.236328125  19.110243055555557 11.666666666666668  17.5 11.666666666666668  C 15.889756944444445 11.666666666666668  14.514973958333334 12.236328125  13.375651041666666 13.375651041666668  C 12.236328125 14.514973958333332  11.666666666666666 15.889756944444441  11.666666666666666 17.5  C 11.666666666666666 19.110243055555554  12.236328125 20.485026041666664  13.375651041666666 21.624348958333336  C 14.514973958333334 22.763671875  15.889756944444445 23.333333333333336  17.5 23.333333333333336  C 19.110243055555557 23.333333333333336  20.485026041666668 22.763671875  21.624348958333332 21.624348958333336  Z M 34.81770833333333 14.480794270833332  C 34.93923611111111 14.640299479166668  35 14.818793402777777  35 15.016276041666668  L 35 20.074869791666664  C 35 20.257161458333336  34.93923611111111 20.43185763888889  34.81770833333333 20.598958333333336  C 34.69618055555556 20.766059027777775  34.54427083333333 20.864800347222218  34.36197916666667 20.895182291666664  L 30.146484375 21.533203125  C 29.857855902777782 22.353515625  29.56163194444445 23.04470486111111  29.2578125 23.606770833333336  C 29.789496527777782 24.366319444444446  30.602213541666668 25.414496527777775  31.695963541666668 26.751302083333332  C 31.84787326388889 26.93359375  31.923828125 27.12348090277778  31.923828125 27.320963541666668  C 31.923828125 27.518446180555557  31.85546875 27.69314236111111  31.71875 27.845052083333332  C 31.30859375 28.407118055555557  30.556640625 29.227430555555557  29.462890625 30.305989583333332  C 28.369140625 31.38454861111111  27.655164930555557 31.923828125  27.320963541666668 31.923828125  C 27.138671875 31.923828125  26.941189236111114 31.85546875  26.728515625 31.71875  L 23.583984375 29.2578125  C 22.91558159722222 29.60720486111111  22.224392361111114 29.895833333333332  21.510416666666668 30.123697916666668  C 21.267361111111114 32.18967013888889  21.04709201388889 33.60243055555556  20.849609375 34.36197916666667  C 20.743272569444446 34.78732638888889  20.469835069444446 35  20.029296875 35  L 14.970703125 35  C 14.758029513888891 35  14.571940104166666 34.93543836805556  14.412434895833334 34.80631510416667  C 14.2529296875 34.67719184027778  14.165581597222225 34.51388888888889  14.150390625 34.31640625  L 13.512369791666666 30.123697916666668  C 12.768012152777779 29.88064236111111  12.084418402777779 29.599609375  11.461588541666666 29.280598958333332  L 8.248697916666668 31.71875  C 8.096788194444445 31.85546875  7.906901041666667 31.923828125  7.679036458333333 31.923828125  C 7.466362847222222 31.923828125  7.2764756944444455 31.84027777777778  7.109375 31.673177083333332  C 5.1953125 29.94140625  3.9420572916666665 28.665364583333332  3.349609375 27.845052083333332  C 3.2432725694444446 27.69314236111111  3.1901041666666665 27.518446180555557  3.1901041666666665 27.320963541666668  C 3.1901041666666665 27.138671875  3.2508680555555562 26.963975694444443  3.3723958333333335 26.796875  C 3.6002604166666665 26.477864583333332  3.9876302083333335 25.972764756944446  4.534505208333333 25.281575520833336  C 5.081380208333333 24.590386284722218  5.491536458333333 24.054904513888882  5.764973958333333 23.675130208333336  C 5.354817708333333 22.915581597222218  5.043402777777779 22.163628472222218  4.830729166666667 21.419270833333336  L 0.6608072916666666 20.804036458333336  C 0.46332465277777785 20.77365451388889  0.3038194444444445 20.6787109375  0.18229166666666666 20.519205729166664  C 0.06076388888888889 20.359700520833336  0 20.181206597222218  0 19.983723958333336  L 0 14.925130208333332  C 0 14.742838541666668  0.06076388888888889 14.568142361111109  0.18229166666666666 14.401041666666668  C 0.3038194444444445 14.233940972222223  0.4481336805555556 14.135199652777777  0.615234375 14.104817708333332  L 4.853515625 13.466796875  C 5.066189236111112 12.768012152777777  5.362413194444445 12.069227430555555  5.7421875 11.370442708333332  C 5.134548611111112 10.504557291666668  4.321831597222222 9.456380208333332  3.3040364583333335 8.225911458333332  C 3.152126736111111 8.043619791666668  3.076171875 7.861328125  3.076171875 7.679036458333332  C 3.076171875 7.527126736111109  3.14453125 7.352430555555551  3.28125 7.154947916666668  C 3.6762152777777777 6.608072916666668  4.424370659722222 5.791558159722219  5.525716145833333 4.705403645833332  C 6.6270616319444455 3.6192491319444415  7.3448350694444455 3.076171875  7.679036458333333 3.076171875  C 7.876519097222222 3.076171875  8.074001736111112 3.1521267361111094  8.271484375 3.304036458333332  L 11.416015625 5.7421875  C 12.084418402777779 5.392795138888887  12.775607638888891 5.104166666666668  13.489583333333334 4.876302083333332  C 13.732638888888891 2.8103298611111094  13.95290798611111 1.3975694444444415  14.150390625 0.638020833333332  C 14.256727430555557 0.21267361111110938  14.530164930555557 0  14.970703125 0  L 20.029296875 0  C 20.241970486111114 0  20.428059895833332 0.06456163194444142  20.587565104166668 0.19368489583333204  C 20.7470703125 0.32280815972221877  20.83441840277778 0.4861111111111094  20.849609375 0.68359375  L 21.487630208333332 4.876302083333332  C 22.23198784722222 5.119357638888887  22.91558159722222 5.400390625  23.538411458333332 5.719401041666668  L 26.774088541666668 3.28125  C 26.910807291666668 3.14453125  27.093098958333332 3.076171875  27.320963541666668 3.076171875  C 27.518446180555557 3.076171875  27.708333333333332 3.1521267361111094  27.890625 3.304036458333332  C 29.850260416666668 5.111762152777778  31.103515625 6.402994791666668  31.650390625 7.177734375  C 31.756727430555557 7.299262152777778  31.809895833333332 7.466362847222219  31.809895833333332 7.679036458333332  C 31.809895833333332 7.861328125  31.74913194444445 8.03602430555555  31.627604166666668 8.203125  C 31.399739583333332 8.522135416666668  31.012369791666668 9.02723524305555  30.465494791666668 9.718424479166668  C 29.918619791666668 10.409613715277777  29.508463541666668 10.945095486111109  29.235026041666668 11.324869791666668  C 29.62999131944445 12.084418402777777  29.94140625 12.828776041666664  30.169270833333332 13.557942708333332  L 34.33919270833333 14.195963541666668  C 34.53667534722222 14.226345486111109  34.69618055555556 14.321289062499996  34.81770833333333 14.480794270833332  Z " fill-rule="evenodd" />
    </mask>
  </defs>
  <g transform="matrix(1 0 0 1 -347 -37 )">
    <path d="M 21.624348958333332 21.624348958333336  C 22.763671875 20.485026041666664  23.333333333333332 19.110243055555554  23.333333333333332 17.5  C 23.333333333333332 15.889756944444441  22.763671875 14.514973958333332  21.624348958333332 13.375651041666668  C 20.485026041666668 12.236328125  19.110243055555557 11.666666666666668  17.5 11.666666666666668  C 15.889756944444445 11.666666666666668  14.514973958333334 12.236328125  13.375651041666666 13.375651041666668  C 12.236328125 14.514973958333332  11.666666666666666 15.889756944444441  11.666666666666666 17.5  C 11.666666666666666 19.110243055555554  12.236328125 20.485026041666664  13.375651041666666 21.624348958333336  C 14.514973958333334 22.763671875  15.889756944444445 23.333333333333336  17.5 23.333333333333336  C 19.110243055555557 23.333333333333336  20.485026041666668 22.763671875  21.624348958333332 21.624348958333336  Z M 34.81770833333333 14.480794270833332  C 34.93923611111111 14.640299479166668  35 14.818793402777777  35 15.016276041666668  L 35 20.074869791666664  C 35 20.257161458333336  34.93923611111111 20.43185763888889  34.81770833333333 20.598958333333336  C 34.69618055555556 20.766059027777775  34.54427083333333 20.864800347222218  34.36197916666667 20.895182291666664  L 30.146484375 21.533203125  C 29.857855902777782 22.353515625  29.56163194444445 23.04470486111111  29.2578125 23.606770833333336  C 29.789496527777782 24.366319444444446  30.602213541666668 25.414496527777775  31.695963541666668 26.751302083333332  C 31.84787326388889 26.93359375  31.923828125 27.12348090277778  31.923828125 27.320963541666668  C 31.923828125 27.518446180555557  31.85546875 27.69314236111111  31.71875 27.845052083333332  C 31.30859375 28.407118055555557  30.556640625 29.227430555555557  29.462890625 30.305989583333332  C 28.369140625 31.38454861111111  27.655164930555557 31.923828125  27.320963541666668 31.923828125  C 27.138671875 31.923828125  26.941189236111114 31.85546875  26.728515625 31.71875  L 23.583984375 29.2578125  C 22.91558159722222 29.60720486111111  22.224392361111114 29.895833333333332  21.510416666666668 30.123697916666668  C 21.267361111111114 32.18967013888889  21.04709201388889 33.60243055555556  20.849609375 34.36197916666667  C 20.743272569444446 34.78732638888889  20.469835069444446 35  20.029296875 35  L 14.970703125 35  C 14.758029513888891 35  14.571940104166666 34.93543836805556  14.412434895833334 34.80631510416667  C 14.2529296875 34.67719184027778  14.165581597222225 34.51388888888889  14.150390625 34.31640625  L 13.512369791666666 30.123697916666668  C 12.768012152777779 29.88064236111111  12.084418402777779 29.599609375  11.461588541666666 29.280598958333332  L 8.248697916666668 31.71875  C 8.096788194444445 31.85546875  7.906901041666667 31.923828125  7.679036458333333 31.923828125  C 7.466362847222222 31.923828125  7.2764756944444455 31.84027777777778  7.109375 31.673177083333332  C 5.1953125 29.94140625  3.9420572916666665 28.665364583333332  3.349609375 27.845052083333332  C 3.2432725694444446 27.69314236111111  3.1901041666666665 27.518446180555557  3.1901041666666665 27.320963541666668  C 3.1901041666666665 27.138671875  3.2508680555555562 26.963975694444443  3.3723958333333335 26.796875  C 3.6002604166666665 26.477864583333332  3.9876302083333335 25.972764756944446  4.534505208333333 25.281575520833336  C 5.081380208333333 24.590386284722218  5.491536458333333 24.054904513888882  5.764973958333333 23.675130208333336  C 5.354817708333333 22.915581597222218  5.043402777777779 22.163628472222218  4.830729166666667 21.419270833333336  L 0.6608072916666666 20.804036458333336  C 0.46332465277777785 20.77365451388889  0.3038194444444445 20.6787109375  0.18229166666666666 20.519205729166664  C 0.06076388888888889 20.359700520833336  0 20.181206597222218  0 19.983723958333336  L 0 14.925130208333332  C 0 14.742838541666668  0.06076388888888889 14.568142361111109  0.18229166666666666 14.401041666666668  C 0.3038194444444445 14.233940972222223  0.4481336805555556 14.135199652777777  0.615234375 14.104817708333332  L 4.853515625 13.466796875  C 5.066189236111112 12.768012152777777  5.362413194444445 12.069227430555555  5.7421875 11.370442708333332  C 5.134548611111112 10.504557291666668  4.321831597222222 9.456380208333332  3.3040364583333335 8.225911458333332  C 3.152126736111111 8.043619791666668  3.076171875 7.861328125  3.076171875 7.679036458333332  C 3.076171875 7.527126736111109  3.14453125 7.352430555555551  3.28125 7.154947916666668  C 3.6762152777777777 6.608072916666668  4.424370659722222 5.791558159722219  5.525716145833333 4.705403645833332  C 6.6270616319444455 3.6192491319444415  7.3448350694444455 3.076171875  7.679036458333333 3.076171875  C 7.876519097222222 3.076171875  8.074001736111112 3.1521267361111094  8.271484375 3.304036458333332  L 11.416015625 5.7421875  C 12.084418402777779 5.392795138888887  12.775607638888891 5.104166666666668  13.489583333333334 4.876302083333332  C 13.732638888888891 2.8103298611111094  13.95290798611111 1.3975694444444415  14.150390625 0.638020833333332  C 14.256727430555557 0.21267361111110938  14.530164930555557 0  14.970703125 0  L 20.029296875 0  C 20.241970486111114 0  20.428059895833332 0.06456163194444142  20.587565104166668 0.19368489583333204  C 20.7470703125 0.32280815972221877  20.83441840277778 0.4861111111111094  20.849609375 0.68359375  L 21.487630208333332 4.876302083333332  C 22.23198784722222 5.119357638888887  22.91558159722222 5.400390625  23.538411458333332 5.719401041666668  L 26.774088541666668 3.28125  C 26.910807291666668 3.14453125  27.093098958333332 3.076171875  27.320963541666668 3.076171875  C 27.518446180555557 3.076171875  27.708333333333332 3.1521267361111094  27.890625 3.304036458333332  C 29.850260416666668 5.111762152777778  31.103515625 6.402994791666668  31.650390625 7.177734375  C 31.756727430555557 7.299262152777778  31.809895833333332 7.466362847222219  31.809895833333332 7.679036458333332  C 31.809895833333332 7.861328125  31.74913194444445 8.03602430555555  31.627604166666668 8.203125  C 31.399739583333332 8.522135416666668  31.012369791666668 9.02723524305555  30.465494791666668 9.718424479166668  C 29.918619791666668 10.409613715277777  29.508463541666668 10.945095486111109  29.235026041666668 11.324869791666668  C 29.62999131944445 12.084418402777777  29.94140625 12.828776041666664  30.169270833333332 13.557942708333332  L 34.33919270833333 14.195963541666668  C 34.53667534722222 14.226345486111109  34.69618055555556 14.321289062499996  34.81770833333333 14.480794270833332  Z " fill-rule="nonzero" fill="rgba(0, 140, 255, 1)" stroke="none" transform="matrix(1 0 0 1 347 37 )" class="fill" />
    <path d="M 21.624348958333332 21.624348958333336  C 22.763671875 20.485026041666664  23.333333333333332 19.110243055555554  23.333333333333332 17.5  C 23.333333333333332 15.889756944444441  22.763671875 14.514973958333332  21.624348958333332 13.375651041666668  C 20.485026041666668 12.236328125  19.110243055555557 11.666666666666668  17.5 11.666666666666668  C 15.889756944444445 11.666666666666668  14.514973958333334 12.236328125  13.375651041666666 13.375651041666668  C 12.236328125 14.514973958333332  11.666666666666666 15.889756944444441  11.666666666666666 17.5  C 11.666666666666666 19.110243055555554  12.236328125 20.485026041666664  13.375651041666666 21.624348958333336  C 14.514973958333334 22.763671875  15.889756944444445 23.333333333333336  17.5 23.333333333333336  C 19.110243055555557 23.333333333333336  20.485026041666668 22.763671875  21.624348958333332 21.624348958333336  Z " stroke-width="0" stroke-dasharray="0" stroke="rgba(255, 255, 255, 0)" fill="none" transform="matrix(1 0 0 1 347 37 )" class="stroke" mask="url(#Clip31)" />
    <path d="M 34.81770833333333 14.480794270833332  C 34.93923611111111 14.640299479166668  35 14.818793402777777  35 15.016276041666668  L 35 20.074869791666664  C 35 20.257161458333336  34.93923611111111 20.43185763888889  34.81770833333333 20.598958333333336  C 34.69618055555556 20.766059027777775  34.54427083333333 20.864800347222218  34.36197916666667 20.895182291666664  L 30.146484375 21.533203125  C 29.857855902777782 22.353515625  29.56163194444445 23.04470486111111  29.2578125 23.606770833333336  C 29.789496527777782 24.366319444444446  30.602213541666668 25.414496527777775  31.695963541666668 26.751302083333332  C 31.84787326388889 26.93359375  31.923828125 27.12348090277778  31.923828125 27.320963541666668  C 31.923828125 27.518446180555557  31.85546875 27.69314236111111  31.71875 27.845052083333332  C 31.30859375 28.407118055555557  30.556640625 29.227430555555557  29.462890625 30.305989583333332  C 28.369140625 31.38454861111111  27.655164930555557 31.923828125  27.320963541666668 31.923828125  C 27.138671875 31.923828125  26.941189236111114 31.85546875  26.728515625 31.71875  L 23.583984375 29.2578125  C 22.91558159722222 29.60720486111111  22.224392361111114 29.895833333333332  21.510416666666668 30.123697916666668  C 21.267361111111114 32.18967013888889  21.04709201388889 33.60243055555556  20.849609375 34.36197916666667  C 20.743272569444446 34.78732638888889  20.469835069444446 35  20.029296875 35  L 14.970703125 35  C 14.758029513888891 35  14.571940104166666 34.93543836805556  14.412434895833334 34.80631510416667  C 14.2529296875 34.67719184027778  14.165581597222225 34.51388888888889  14.150390625 34.31640625  L 13.512369791666666 30.123697916666668  C 12.768012152777779 29.88064236111111  12.084418402777779 29.599609375  11.461588541666666 29.280598958333332  L 8.248697916666668 31.71875  C 8.096788194444445 31.85546875  7.906901041666667 31.923828125  7.679036458333333 31.923828125  C 7.466362847222222 31.923828125  7.2764756944444455 31.84027777777778  7.109375 31.673177083333332  C 5.1953125 29.94140625  3.9420572916666665 28.665364583333332  3.349609375 27.845052083333332  C 3.2432725694444446 27.69314236111111  3.1901041666666665 27.518446180555557  3.1901041666666665 27.320963541666668  C 3.1901041666666665 27.138671875  3.2508680555555562 26.963975694444443  3.3723958333333335 26.796875  C 3.6002604166666665 26.477864583333332  3.9876302083333335 25.972764756944446  4.534505208333333 25.281575520833336  C 5.081380208333333 24.590386284722218  5.491536458333333 24.054904513888882  5.764973958333333 23.675130208333336  C 5.354817708333333 22.915581597222218  5.043402777777779 22.163628472222218  4.830729166666667 21.419270833333336  L 0.6608072916666666 20.804036458333336  C 0.46332465277777785 20.77365451388889  0.3038194444444445 20.6787109375  0.18229166666666666 20.519205729166664  C 0.06076388888888889 20.359700520833336  0 20.181206597222218  0 19.983723958333336  L 0 14.925130208333332  C 0 14.742838541666668  0.06076388888888889 14.568142361111109  0.18229166666666666 14.401041666666668  C 0.3038194444444445 14.233940972222223  0.4481336805555556 14.135199652777777  0.615234375 14.104817708333332  L 4.853515625 13.466796875  C 5.066189236111112 12.768012152777777  5.362413194444445 12.069227430555555  5.7421875 11.370442708333332  C 5.134548611111112 10.504557291666668  4.321831597222222 9.456380208333332  3.3040364583333335 8.225911458333332  C 3.152126736111111 8.043619791666668  3.076171875 7.861328125  3.076171875 7.679036458333332  C 3.076171875 7.527126736111109  3.14453125 7.352430555555551  3.28125 7.154947916666668  C 3.6762152777777777 6.608072916666668  4.424370659722222 5.791558159722219  5.525716145833333 4.705403645833332  C 6.6270616319444455 3.6192491319444415  7.3448350694444455 3.076171875  7.679036458333333 3.076171875  C 7.876519097222222 3.076171875  8.074001736111112 3.1521267361111094  8.271484375 3.304036458333332  L 11.416015625 5.7421875  C 12.084418402777779 5.392795138888887  12.775607638888891 5.104166666666668  13.489583333333334 4.876302083333332  C 13.732638888888891 2.8103298611111094  13.95290798611111 1.3975694444444415  14.150390625 0.638020833333332  C 14.256727430555557 0.21267361111110938  14.530164930555557 0  14.970703125 0  L 20.029296875 0  C 20.241970486111114 0  20.428059895833332 0.06456163194444142  20.587565104166668 0.19368489583333204  C 20.7470703125 0.32280815972221877  20.83441840277778 0.4861111111111094  20.849609375 0.68359375  L 21.487630208333332 4.876302083333332  C 22.23198784722222 5.119357638888887  22.91558159722222 5.400390625  23.538411458333332 5.719401041666668  L 26.774088541666668 3.28125  C 26.910807291666668 3.14453125  27.093098958333332 3.076171875  27.320963541666668 3.076171875  C 27.518446180555557 3.076171875  27.708333333333332 3.1521267361111094  27.890625 3.304036458333332  C 29.850260416666668 5.111762152777778  31.103515625 6.402994791666668  31.650390625 7.177734375  C 31.756727430555557 7.299262152777778  31.809895833333332 7.466362847222219  31.809895833333332 7.679036458333332  C 31.809895833333332 7.861328125  31.74913194444445 8.03602430555555  31.627604166666668 8.203125  C 31.399739583333332 8.522135416666668  31.012369791666668 9.02723524305555  30.465494791666668 9.718424479166668  C 29.918619791666668 10.409613715277777  29.508463541666668 10.945095486111109  29.235026041666668 11.324869791666668  C 29.62999131944445 12.084418402777777  29.94140625 12.828776041666664  30.169270833333332 13.557942708333332  L 34.33919270833333 14.195963541666668  C 34.53667534722222 14.226345486111109  34.69618055555556 14.321289062499996  34.81770833333333 14.480794270833332  Z " stroke-width="0" stroke-dasharray="0" stroke="rgba(255, 255, 255, 0)" fill="none" transform="matrix(1 0 0 1 347 37 )" class="stroke" mask="url(#Clip31)" />
  </g>
</svg>